<svg width="56" height="56" viewBox="0 0 56 56" fill="none" xmlns="http://www.w3.org/2000/svg">
<path fill-rule="evenodd" clip-rule="evenodd" d="M25.9745 0C26.2727 0.0111111 26.4931 0.122222 26.8042 0.422222C27.0506 0.644444 27.7506 1.47778 28.36 2.27778C28.9823 3.06667 29.8379 4.31111 30.2657 5.05556C30.7065 5.78889 31.1992 6.77778 31.3677 7.24444C31.5492 7.72222 31.7307 8.11111 31.7826 8.11111C31.8474 8.11111 32.1326 7.74444 32.4308 7.3C32.729 6.86667 33.1568 6.12222 33.3901 5.66667C33.6105 5.21111 33.8958 4.46667 34.0124 4.02222C34.1291 3.58889 34.2199 3.02222 34.2199 2.77778C34.2199 2.45556 34.3106 2.25556 34.544 2.05556C34.7255 1.88889 34.9977 1.77778 35.2181 1.77778C35.4126 1.77778 35.8663 1.92222 36.2293 2.1C36.5794 2.26667 37.2017 2.71111 37.5906 3.06667C38.0184 3.45556 38.537 4.11111 38.8611 4.66667C39.1723 5.18889 39.5353 5.93333 39.6649 6.33333C39.8075 6.73333 40.002 7.5 40.1187 8.05556C40.2353 8.61111 40.365 9.73333 40.4039 10.5556C40.4428 11.4444 40.4168 12.4444 40.3261 13C40.2483 13.5222 40.0668 14.3444 39.9112 14.8333C39.7686 15.3222 39.3667 16.2222 39.0296 16.8333C38.6796 17.4444 38.0962 18.3111 37.7332 18.7556C37.3702 19.1889 36.6831 19.9111 36.1905 20.3444C35.7108 20.7889 34.8551 21.4667 34.2847 21.8556C33.7143 22.2556 32.6641 22.8667 31.9511 23.2333C31.2381 23.6 30.6158 23.8889 30.5509 23.8889C30.4991 23.8889 30.3176 23.6222 30.162 23.3C29.9935 22.9889 29.812 22.6111 29.7731 22.4667C29.6953 22.2778 29.7472 22.2111 29.9676 22.1444C30.1361 22.1111 30.8491 21.7333 31.5622 21.3222C32.2752 20.9111 33.3253 20.2111 33.8958 19.7556C34.4662 19.3 35.257 18.5556 35.6589 18.1C36.0608 17.6444 36.6053 16.9556 36.8516 16.5556C37.1109 16.1556 37.435 15.5556 37.5776 15.2222C37.7202 14.8889 37.9406 14.2889 38.0703 13.8889C38.2388 13.3222 38.2907 12.7444 38.2907 11.2222C38.2907 9.88889 38.2259 8.95555 38.0703 8.24444C37.9536 7.68889 37.6684 6.81111 37.461 6.3C37.2406 5.8 36.8776 5.15556 36.6442 4.86667C36.4238 4.56667 36.2034 4.33333 36.1645 4.33333C36.1256 4.33333 35.996 4.64444 35.8663 5.02222C35.7367 5.41111 35.3218 6.27778 34.9459 6.94444C34.5699 7.61111 33.8439 8.68889 33.3513 9.33333C32.8586 9.97778 31.8992 11.0778 31.2251 11.7778C30.5639 12.4778 29.1378 13.8111 28.0618 14.7333C26.9987 15.6556 25.6763 16.7222 24.1725 17.8111L23.265 17.7444C22.7594 17.7111 22.0334 17.5778 21.6444 17.4444C21.2555 17.3111 20.6462 17.0222 20.3091 16.8C19.9331 16.5556 19.3886 16.0222 18.9997 15.5C18.6237 15.0111 18.0792 14.4444 17.807 14.2333C17.5347 14.0222 17.0421 13.7444 16.718 13.6222C16.2253 13.4222 15.8753 13.3889 14.5789 13.3889C13.1139 13.3889 12.9713 13.4111 12.1804 13.7333C11.7137 13.9222 11.1174 14.2556 10.8451 14.4778C10.5858 14.7 10.2228 15.1333 10.0413 15.4444C9.85982 15.7444 9.62646 16.2889 9.52275 16.6333C9.41903 16.9889 9.32828 17.4444 9.32828 17.6333C9.32828 17.8333 9.23753 18.1444 8.93935 18.6667H9.80796C10.4691 18.6556 10.7544 18.7111 10.9748 18.8556C11.1563 18.9778 11.4415 19.5444 11.7656 20.3889C12.0508 21.1222 12.5953 22.2667 12.9972 22.9444C13.3861 23.6222 13.9695 24.5 14.2807 24.9111C14.5789 25.3222 15.1882 26 15.616 26.4111C16.0438 26.8333 16.7569 27.4444 17.2106 27.7778C17.6514 28.1111 18.4682 28.6111 19.0256 28.8889C19.5701 29.1667 20.4906 29.5222 21.061 29.6889C21.6315 29.8444 22.5519 30.0333 23.0964 30.1C23.6539 30.1667 24.6003 30.2222 25.2096 30.2222C25.819 30.2222 26.9728 30.1444 27.7636 30.0556C28.5674 29.9667 29.8509 29.7444 30.6158 29.5556C31.3936 29.3778 32.5604 29.0222 33.2086 28.7778C33.8698 28.5333 34.9459 28.0667 35.5811 27.7333C36.2164 27.4111 37.1887 26.8444 37.7202 26.4778C38.2518 26.1111 39.25 25.3222 39.9242 24.7111C40.5983 24.1111 41.5318 23.1333 41.9855 22.5556C42.4393 21.9778 43.0356 21.1111 43.3079 20.6333C43.5931 20.1667 43.9302 19.7333 44.0728 19.6667C44.2284 19.6 45.9137 19.5556 48.2862 19.5556C51.9162 19.5556 52.2533 19.5444 52.357 19.3556C52.4218 19.2556 52.6163 18.7889 52.7978 18.3333C52.9793 17.8778 53.2516 17.0444 53.3942 16.5C53.5368 15.9556 53.7183 14.9222 53.7961 14.2222C53.8609 13.5222 53.9127 12.9333 53.8998 12.9222C53.8738 12.9111 50.9698 13.9222 47.4435 15.1778C43.9172 16.4222 40.9743 17.4222 40.8965 17.4C40.8187 17.3778 40.6113 17.0222 40.4168 16.6C40.2224 16.1778 40.0798 15.8333 40.0927 15.8222C40.1057 15.8222 43.4116 14.6556 47.4435 13.2444C51.4754 11.8222 54.898 10.6667 55.0536 10.6667C55.2221 10.6667 55.4944 10.7889 55.6759 10.9444C55.9611 11.1889 56 11.3111 56 12.0222C56 12.4667 55.9352 13.4111 55.8704 14.1111C55.7926 14.8111 55.624 15.9333 55.4685 16.6111C55.3259 17.2889 55.0406 18.2556 54.8332 18.7778C54.6387 19.3 54.2887 20.0333 54.0683 20.4111C53.8479 20.8 53.5497 21.1556 53.4071 21.2222C53.2516 21.2889 51.5662 21.3333 45.2396 21.3333L44.7988 22.0222C44.5525 22.4111 44.0339 23.1111 43.6579 23.5778C43.282 24.0444 42.5689 24.8333 42.0633 25.3333C41.5577 25.8333 40.6632 26.6222 40.0538 27.0778C39.4445 27.5333 38.3425 28.2556 37.5906 28.6889C36.8387 29.1222 35.6459 29.7111 34.9329 30.0111C34.2199 30.3 33.0531 30.7111 32.34 30.9222C31.627 31.1333 30.4861 31.4111 29.812 31.5333C29.1378 31.6667 27.9321 31.8222 27.1543 31.9C26.3635 31.9667 25.08 32 24.3021 31.9667C23.5113 31.9333 22.4612 31.8333 21.9685 31.7333C21.4629 31.6444 20.7369 31.4667 20.348 31.3556C19.9591 31.2444 19.1034 30.9111 18.4682 30.6333C17.8199 30.3444 16.8087 29.7778 16.2124 29.3667C15.603 28.9556 14.7604 28.2556 14.3325 27.8333C13.8917 27.4111 13.2695 26.7333 12.9324 26.3333C12.6083 25.9333 12.0119 25.1111 11.61 24.5C11.2081 23.8889 10.5858 22.7222 9.52275 20.4444H8.18742C6.94284 20.4444 6.83912 20.4222 6.54094 20.1667C6.35944 20.0111 6.21683 19.7667 6.21683 19.6111C6.21683 19.4556 6.45019 18.9222 6.72245 18.4111C7.04655 17.8444 7.30584 17.1444 7.43549 16.5556C7.56513 15.9556 7.81145 15.3111 8.1226 14.7778C8.39485 14.3111 8.92639 13.6556 9.32828 13.3C9.80796 12.8556 10.3525 12.5111 11.0136 12.2333C11.61 11.9778 12.3619 11.7556 12.9583 11.6667C13.5287 11.5889 14.4622 11.5444 15.2271 11.5778C16.2383 11.6222 16.705 11.7 17.3662 11.9333C17.8329 12.1 18.4941 12.4222 18.8441 12.6444C19.1942 12.8667 19.7257 13.3333 20.0109 13.6667C20.2961 14 20.7369 14.5222 20.9832 14.8111C21.2425 15.1111 21.6833 15.4667 21.9685 15.6111C22.2538 15.7556 22.7205 15.9 23.5243 16.0111L25.5986 14.3C26.7394 13.3556 28.1785 12.1 28.7878 11.4889C29.3971 10.8889 29.9416 10.3222 29.9805 10.2444C30.0324 10.1778 29.9935 9.74444 29.8898 9.3C29.7861 8.86667 29.5268 8.07778 29.3064 7.55556C29.073 7.03333 28.5674 6.08889 28.1785 5.44444C27.7766 4.8 27.2061 3.97778 26.9209 3.61111C26.4153 2.97778 26.3894 2.95556 26.2986 3.22222C26.2468 3.37778 25.9356 4.24444 25.5986 5.16667C25.2615 6.07778 24.6651 7.53333 24.2762 8.38889C23.8873 9.24444 23.5243 9.97778 23.4854 10.0333C23.4335 10.0778 22.9798 9.95556 21.5796 9.42222L22.2408 7.96667C22.6038 7.15556 23.1742 5.8 23.4983 4.94444C23.8224 4.08889 24.3021 2.71111 24.5485 1.88889C24.8855 0.811111 25.093 0.333333 25.2874 0.188889C25.443 0.0888889 25.7541 0 25.9745 0V0ZM3.49432 30.2556C3.94807 30.2778 4.42775 30.3778 4.82965 30.5556C5.16672 30.7111 7.46141 32.1556 9.93761 33.7778C12.4008 35.4 14.4622 36.7333 14.527 36.7444C14.5918 36.7667 14.6437 36.6889 14.6437 36.5778C14.6437 36.4778 14.7992 36.1778 14.9937 35.9222C15.2011 35.6667 15.5641 35.3222 15.8105 35.1667C16.0568 35.0111 16.4716 34.8333 16.718 34.7778C16.9643 34.7111 17.3403 34.6667 17.5607 34.6667C17.7681 34.6667 18.157 34.7111 18.4033 34.7778C18.6497 34.8333 19.259 35.1111 19.7646 35.4C20.2572 35.6889 22.1241 36.8 23.9132 37.8556C25.6893 38.9222 27.3488 39.9667 27.997 40.5556L28.4118 40.1667C28.6452 39.9556 30.6158 38.7333 32.7938 37.4333C34.9718 36.1444 36.9294 35.0111 37.1368 34.9222C37.3443 34.8333 37.7851 34.7222 38.1092 34.7C38.4851 34.6556 38.9259 34.7 39.3408 34.8222C39.6908 34.9222 40.1446 35.1222 40.3261 35.2556C40.5205 35.3889 40.8317 35.7 41.0132 35.9444C41.2077 36.1889 41.3503 36.4778 41.3503 36.5778C41.3503 36.6889 41.3762 36.7778 41.4151 36.7778C41.454 36.7778 43.4764 35.4667 45.9137 33.8667C48.364 32.2667 50.6457 30.8111 50.9958 30.6222C51.5662 30.3111 51.7477 30.2778 52.6163 30.2778C53.3682 30.2778 53.7183 30.3333 54.1202 30.5222C54.4054 30.6556 54.8202 30.9222 55.0536 31.1333C55.274 31.3333 55.5851 31.7222 55.7277 32C55.8833 32.2778 56 32.7444 56 33.0556C56 33.3556 55.9222 33.8111 55.8315 34.0556C55.7278 34.3 53.3293 37.6778 45.3692 48.6111L41.4799 51.1111V56H39.4056V53.3333H31.1084V56H29.0341V50.9444L28.5415 50.3111C28.2822 49.9556 28.0359 49.6667 27.997 49.6667C27.9581 49.6667 27.7118 49.9556 26.9598 50.9444V56H24.8855V53.3333H16.5883V56H14.514V51.1111L10.6247 48.6111L5.60751 41.7222C2.83314 37.9333 0.434727 34.5778 0.266191 34.2778C0.00690335 33.8111 -0.0319898 33.6 0.0198677 33C0.0587608 32.6 0.188404 32.1 0.318048 31.8889C0.434727 31.6778 0.719944 31.3333 0.953302 31.1333C1.1737 30.9222 1.52373 30.6778 1.7182 30.5889C1.91267 30.4889 2.23677 30.3667 2.43124 30.3222C2.62571 30.2667 3.10539 30.2444 3.49432 30.2556ZM2.27567 32.5667C2.17195 32.7111 2.06824 32.9889 2.06824 33.1667C2.06824 33.4222 3.31282 35.2111 7.12434 40.4444L12.1804 47.3889C15.3437 49.4222 16.342 50.0889 16.4328 50.2C16.5235 50.3 16.5883 50.6556 16.5883 50.9667V51.5556H24.8855C24.8855 50.4333 24.9633 50.2889 25.793 49.2222C26.2857 48.5778 26.7524 47.8778 26.8302 47.6667C26.895 47.4556 26.9598 46.2556 26.9598 45C26.9598 42.9444 26.9339 42.6778 26.6876 42.2222C26.545 41.9444 26.2986 41.6 26.1431 41.4556C25.9875 41.3111 24.1336 40.1667 22.0334 38.9111C19.9331 37.6556 18.0533 36.5667 17.8588 36.5111C17.6125 36.4222 17.431 36.4222 17.1847 36.5222C17.0032 36.6 16.7828 36.7778 16.705 36.9111C16.6272 37.0556 16.5883 37.2889 16.6272 37.4444C16.6791 37.6333 17.5607 38.3667 19.4016 39.7222C20.8795 40.8222 22.2538 41.8556 22.4612 42.0222C22.6686 42.2111 22.8112 42.4556 22.8112 42.6333C22.8242 42.8222 22.6816 43.0667 22.4742 43.2444C22.2797 43.4222 21.9815 43.5556 21.787 43.5556C21.5407 43.5556 19.1942 42.0778 12.7638 37.8667C7.97999 34.7333 3.974 32.1222 3.84436 32.0778C3.72768 32.0333 3.49432 32 3.32578 32C3.17021 32.0111 2.91092 32.0778 2.75535 32.1556C2.61274 32.2333 2.39235 32.4222 2.27567 32.5667ZM43.1653 37.9111C36.5405 42.2556 34.4662 43.5667 34.1939 43.5556C33.9865 43.5556 33.6883 43.4333 33.5068 43.2778C33.2994 43.1 33.1827 42.8778 33.1827 42.6667C33.1827 42.4778 33.2994 42.2222 33.4809 42.0667C33.6365 41.9222 35.0107 40.9 36.5275 39.7889C38.537 38.3222 39.3019 37.7 39.3538 37.4667C39.3927 37.3 39.3667 37.0556 39.2889 36.9111C39.2111 36.7778 38.9908 36.6 38.8092 36.5222C38.5629 36.4222 38.3814 36.4222 38.1351 36.5111C37.9406 36.5667 36.1256 37.6111 34.0902 38.8222C32.0548 40.0333 30.2268 41.1556 30.0194 41.3222C29.812 41.4778 29.5138 41.8556 29.3453 42.1667C29.0471 42.6889 29.0341 42.8333 29.0341 45C29.0341 46.2556 29.0989 47.4556 29.1638 47.6667C29.2415 47.8778 29.7083 48.5778 30.2009 49.2222C31.0306 50.2889 31.1084 50.4333 31.1084 50.9667V51.5556H39.4056C39.4056 50.6889 39.4445 50.3667 39.5093 50.2667C39.5612 50.1667 40.5465 49.4778 41.7133 48.7333L43.8265 47.3889C51.8384 36.3778 53.8738 33.4778 53.8998 33.2778C53.9257 33.1 53.8738 32.8 53.7701 32.6222C53.6794 32.4444 53.446 32.2333 53.2516 32.1556C53.0441 32.0667 52.7589 32 52.6033 32C52.4348 32 52.1885 32.0667 52.0459 32.1333C51.9033 32.2111 47.9102 34.8111 43.1653 37.9111ZM20.8925 10.6667C20.9573 10.6667 21.3722 10.8444 22.6816 11.4444L22.3315 12C22.1241 12.3111 21.8778 12.6556 21.7741 12.7778C21.5796 13 21.5666 13 20.7758 12.5333C20.3221 12.2667 19.972 12 19.998 11.9444C20.0109 11.8778 20.1924 11.5667 20.4128 11.2444C20.6202 10.9333 20.8406 10.6667 20.8925 10.6667ZM13.6713 15.1556C14.0343 15.1778 14.4622 15.3 14.6307 15.4111C14.7992 15.5222 15.0456 15.7333 15.1752 15.8889C15.3049 16.0444 15.4604 16.3333 15.616 16.8889H13.5158C11.7267 16.8889 11.4026 16.8667 11.4026 16.7222C11.4026 16.6333 11.4674 16.4222 11.5452 16.2444C11.623 16.0778 11.7785 15.8222 11.9082 15.6667C12.0249 15.5222 12.3231 15.3333 12.5694 15.2556C12.8287 15.1667 13.3083 15.1333 13.6713 15.1556Z" fill="#149849"/>
</svg>
