<svg width="56" height="56" viewBox="0 0 56 56" fill="none" xmlns="http://www.w3.org/2000/svg">
<path fill-rule="evenodd" clip-rule="evenodd" d="M13.7266 0L15.5859 0.0457984C16.6031 0.0686976 17.9813 0.183194 18.6484 0.28624C19.3156 0.389286 20.2453 0.57248 20.7266 0.686976C21.2078 0.812922 21.9734 1.05336 22.4219 1.22511C22.8703 1.3854 23.5375 1.68309 23.8984 1.87773C24.2594 2.06093 24.8062 2.41587 25.1016 2.64486C25.4078 2.8853 25.8453 3.27459 26.075 3.51503C26.3156 3.76692 26.6766 4.2478 26.8844 4.59129C27.1031 4.93478 27.3656 5.50726 27.475 5.85075C27.5844 6.19423 27.7156 6.89266 27.7703 7.39644C27.8141 7.90022 27.8141 8.6788 27.7703 9.11388C27.7156 9.54897 27.5516 10.3504 27.4094 10.8886C27.2563 11.4267 27.0375 12.0908 26.7094 12.8923L27.1906 13.8884C27.4531 14.4494 27.825 15.2967 28.0109 15.789C28.1969 16.2699 28.4922 17.1401 28.6672 17.7011C28.8313 18.2621 29.1266 19.3727 29.3016 20.1627C29.4766 20.9528 29.6953 22.1092 29.7937 22.7389C29.8922 23.3686 30.0344 24.5365 30.1109 25.338C30.1875 26.128 30.275 26.815 30.3188 26.8493C30.3734 26.8837 30.5266 26.6318 30.9531 25.6586L30.7453 25.0059C30.625 24.6395 30.4719 24.0098 30.3953 23.5976C30.3187 23.1854 30.2531 22.2122 30.2531 21.4222C30.2531 20.4375 30.3078 19.762 30.4391 19.2468C30.5375 18.8346 30.8328 18.0675 31.0844 17.5293C31.4234 16.7966 31.7297 16.3615 32.3094 15.7432C32.7359 15.2967 33.425 14.7242 33.8516 14.4723C34.2781 14.209 35.0875 13.8426 35.6562 13.6479C36.225 13.4418 37.1656 13.2014 37.7344 13.0983C38.3141 13.0067 39.5391 12.9151 40.5344 12.9037C41.9234 12.8923 42.3609 12.9266 42.5906 13.064C42.7437 13.1556 42.9297 13.3846 42.9844 13.5792C43.05 13.7739 43.0938 14.2891 43.0938 14.7242C43.0938 15.1593 43.0391 16.0638 42.9844 16.7279C42.9297 17.3919 42.7984 18.4224 42.7 19.0178C42.6125 19.6132 42.3391 20.7238 42.0984 21.4795C41.8469 22.2695 41.4422 23.2312 41.1469 23.7465C40.8625 24.2388 40.3594 24.9372 40.0203 25.2922C39.6812 25.6471 39.1125 26.1051 38.7625 26.3112C38.4125 26.5058 37.8219 26.7577 37.4609 26.8608C36.9469 27.0211 36.5422 27.044 35.6016 26.9982C34.9344 26.9638 34.1031 26.8493 33.7422 26.7463C33.3812 26.6318 32.9875 26.5173 32.8672 26.4944C32.6813 26.4486 32.5938 26.5745 32.3094 27.2272C32.1125 27.6508 31.7844 28.5668 31.5547 29.2652C31.3359 29.9636 31.0406 31.0399 30.8984 31.6696C30.7563 32.2993 30.5703 33.284 30.4719 33.845C30.3844 34.4061 30.2859 35.2877 30.2422 35.7915C30.2094 36.2952 30.1547 36.8792 30.0781 37.4516H33.8844C36.9906 37.4516 37.8 37.486 38.3359 37.6348C38.6969 37.7264 39.2109 37.9554 39.4734 38.1157C39.7469 38.2875 40.1625 38.6653 40.8516 39.5011L44.4609 35.1274C46.4406 32.7344 48.4094 30.3872 48.8359 29.9178C49.2625 29.4484 49.9406 28.853 50.3672 28.5782C50.7938 28.3034 51.4719 27.9599 51.8984 27.7996C52.325 27.6393 53.1562 27.4561 53.7578 27.376C54.3594 27.3073 55.0156 27.273 55.2016 27.3073C55.4203 27.3531 55.65 27.5019 55.7812 27.6966C55.9125 27.8683 56 28.1088 56 28.2347C56 28.3607 54.5125 31.9902 52.7078 36.3067C50.8922 40.6232 49.2078 44.5619 48.9672 45.0656C48.7266 45.5694 48.3328 46.2907 48.0812 46.6686C47.8406 47.0464 47.2938 47.7334 46.8672 48.2028C46.4516 48.6608 45.7844 49.2905 45.3906 49.5882C44.9969 49.8974 44.3078 50.3439 43.8594 50.6072C43.4109 50.8591 42.6672 51.2026 42.2188 51.3629C41.7703 51.5232 41.1031 51.7293 40.7422 51.8323C40.3812 51.9239 38.3688 52.7254 36.2578 53.5956C33.9609 54.5574 31.9922 55.3016 31.3359 55.4733C30.7344 55.6222 29.9469 55.8054 29.5859 55.8741C29.225 55.9428 28.4156 56 27.7812 56C26.9719 56 26.2281 55.9084 25.2656 55.7023C24.5109 55.542 23.6031 55.3016 23.2422 55.1756C22.8813 55.0382 20.5406 54.0078 18.0469 52.8743C15.5531 51.7407 12.9609 50.5958 12.3047 50.3324C11.6484 50.0577 10.6094 49.6798 10.0078 49.4966C9.40625 49.302 8.27969 48.9814 7.49219 48.7982C6.70469 48.615 5.23906 48.3517 4.21094 48.2257C3.19375 48.0998 1.93594 47.9395 1.42188 47.8822C0.634375 47.7906 0.459375 47.7334 0 47.1838V37.2227L0.525 36.57C0.820312 36.2036 1.44375 35.5396 1.925 35.1045C2.39531 34.6579 3.04063 34.1198 3.33594 33.8908C3.64219 33.6618 4.25469 33.2611 4.70312 32.9863C5.15156 32.723 5.89531 32.3566 6.34375 32.1619C6.79219 31.9787 7.55781 31.7268 8.03906 31.6009C8.52031 31.475 9.46094 31.349 10.1172 31.3032C10.8828 31.2574 11.6375 31.2803 12.1953 31.3719C12.6766 31.4521 13.4641 31.6124 13.9453 31.7383C14.4266 31.8642 15.3562 32.1505 16.0234 32.3795C16.6906 32.597 17.5766 32.9291 17.9922 33.1008C18.4078 33.284 19.2938 33.6847 19.9609 34.0168C20.6281 34.3374 21.7984 34.99 22.5859 35.4594C23.3734 35.9174 24.3797 36.467 24.8281 36.6616C25.2766 36.8448 25.9656 37.0738 26.3594 37.154C26.7531 37.2456 27.3328 37.3372 28.2188 37.4516L28.2734 36.9708C28.2953 36.696 28.3828 35.7113 28.4484 34.761C28.5359 33.6733 28.5578 31.8986 28.5141 29.8949C28.4703 28.166 28.3719 26.128 28.2844 25.3723C28.1969 24.6166 28.0438 23.4831 27.9453 22.8534C27.8469 22.2237 27.6281 21.0902 27.4531 20.3345C27.2891 19.5788 26.95 18.3652 26.7094 17.6438C26.4688 16.9225 26.0531 15.8233 25.7688 15.2165C25.3641 14.312 25.2328 14.1059 25.0797 14.1632C24.9703 14.1975 24.4125 14.3006 23.8438 14.3921C23.275 14.4723 22.3891 14.5524 21.875 14.5524C21.3609 14.5524 20.475 14.4494 19.9062 14.3235C19.2609 14.1861 18.5172 13.9113 17.9375 13.6136C17.1828 13.2357 16.8328 12.9495 16.0781 12.1595C15.4875 11.5297 14.9844 10.8657 14.6891 10.3161C14.4375 9.84666 14.0766 8.99939 13.9016 8.42691C13.7156 7.86588 13.475 6.78961 13.3438 6.05684C13.1906 5.09507 13.1141 4.11041 13.0813 0.652627L13.7266 0ZM14.9187 3.42343C14.9516 4.2249 15.0609 5.30117 15.1375 5.80495C15.225 6.30873 15.3672 6.97281 15.4547 7.2934C15.5422 7.60254 15.7281 8.14067 15.8594 8.4956C15.9906 8.83909 16.275 9.40012 16.4937 9.75506C16.7016 10.0985 17.1281 10.6252 17.4344 10.9344C17.7406 11.2321 18.1891 11.5984 18.4297 11.7473C18.6703 11.8961 19.2172 12.1366 19.6328 12.2854C20.3109 12.5259 20.5844 12.5602 22.1703 12.5602C23.1984 12.5602 23.9969 12.503 24.0625 12.4457C24.15 12.3541 24.0297 12.1251 23.6469 11.6442C23.3516 11.2664 22.7937 10.6481 22.4109 10.2588C22.0281 9.88101 21.4156 9.36577 21.0547 9.11388C20.6938 8.85054 20.0594 8.46126 19.6328 8.23226C19.1187 7.94602 18.8234 7.71703 18.725 7.49949C18.6375 7.2934 18.6156 7.05295 18.6703 6.84686C18.7141 6.66367 18.8563 6.43468 18.9766 6.35453C19.0969 6.27438 19.3266 6.19423 19.5016 6.20568C19.6656 6.20568 20.1797 6.40033 20.65 6.65222C21.1094 6.89266 21.8531 7.36209 22.2906 7.68268C22.7172 8.00327 23.4391 8.633 23.8766 9.09098C24.325 9.54897 24.8609 10.1558 25.0797 10.442L25.4844 10.9573C25.6703 10.4191 25.8016 9.85811 25.8891 9.35432C25.9875 8.78184 26.0203 8.12922 25.9875 7.63688C25.9438 7.05295 25.8234 6.60642 25.55 6.03394C25.2984 5.48436 24.9922 5.04927 24.5984 4.67144C24.2703 4.3623 23.6906 3.92721 23.2969 3.69822C22.9031 3.48068 22.2469 3.17154 21.8203 3.02269C21.4047 2.87385 20.6609 2.65631 20.1797 2.53036C19.6984 2.40442 18.6922 2.23267 17.9375 2.12963C17.1828 2.03803 16.1766 1.96933 15.7063 1.96933H14.8422L14.9187 3.42343ZM37.0234 15.1936C36.6078 15.2967 35.8203 15.5944 35.2734 15.8691C34.6391 16.1897 34.0922 16.5561 33.7422 16.9225C33.4469 17.2317 33.0422 17.7583 32.8453 18.1018C32.6594 18.4453 32.3969 19.1437 32.2766 19.6475C32.1234 20.2658 32.0578 20.8841 32.0578 21.5367C32.0688 22.0748 32.1125 22.6702 32.1453 22.8534C32.2109 23.1969 32.2219 23.1854 32.9219 22.1664C33.3156 21.6054 34.125 20.6207 34.7266 19.9796C35.3281 19.3498 36.0609 18.6629 36.3453 18.4682C36.6297 18.2621 37.0234 18.0675 37.2203 18.0217C37.5156 17.9644 37.625 18.0102 37.8766 18.2507C38.0844 18.4682 38.1719 18.6743 38.1719 18.9376C38.1719 19.1323 38.1391 19.3613 38.0953 19.4185C38.0516 19.4872 37.6906 19.8078 37.2969 20.1284C36.9141 20.449 36.1922 21.1474 35.7109 21.6741C35.2297 22.2122 34.5406 23.0938 34.1797 23.632C33.8187 24.1816 33.5563 24.651 33.5781 24.6739C33.6109 24.7082 33.9609 24.8227 34.3438 24.9258C34.7484 25.0403 35.4375 25.1319 35.9297 25.1319C36.5859 25.1319 36.9688 25.0632 37.4609 24.8571C37.9203 24.6739 38.3031 24.3991 38.7297 23.9526C39.0578 23.5976 39.5063 22.9565 39.725 22.5099C39.9438 22.0748 40.2281 21.3764 40.3594 20.9642C40.4906 20.552 40.6875 19.7849 40.7969 19.2468C40.9062 18.7086 41.0594 17.7698 41.125 17.163C41.1797 16.5447 41.2344 15.7547 41.2344 15.4112V14.7814C39.7578 14.8043 38.9813 14.8501 38.5547 14.9074C38.1391 14.9532 37.45 15.0791 37.0234 15.1936ZM51.4062 30.1468C51.1437 30.3071 50.7172 30.6391 50.4656 30.891C50.2141 31.1315 48.0922 33.6504 45.7516 36.4784L41.4969 41.6308C41.3219 42.7872 41.1469 43.3825 41.0047 43.6917C40.8625 44.0123 40.5016 44.5275 40.1953 44.8366C39.9 45.1572 39.4297 45.5236 39.1562 45.661C38.8937 45.7984 38.4016 45.9701 38.0625 46.0388C37.6906 46.1075 35 46.1533 30.8438 46.1533C25.5281 46.1533 24.0187 46.1877 23.1328 46.3251C22.5312 46.4281 21.7328 46.5999 21.3609 46.7258L20.6719 46.9548C20.4859 46.4625 20.3438 46.0503 20.2234 45.7297L20.0156 45.1229C21.1641 44.7794 21.9406 44.5847 22.4766 44.4817C23.3297 44.31 24.4891 44.2756 30.7344 44.2184C37.2313 44.1611 38.0406 44.1268 38.3359 43.955C38.5219 43.852 38.7953 43.623 38.9594 43.4398C39.1234 43.268 39.3312 42.9246 39.4297 42.6956C39.5172 42.4551 39.5938 42.0544 39.5938 41.8025C39.5938 41.5506 39.5172 41.1499 39.4297 40.9209C39.3312 40.6804 39.1234 40.3369 38.9594 40.1652C38.7953 39.982 38.5219 39.753 38.3359 39.65C38.0516 39.4782 37.3516 39.4439 32.4844 39.3866C27.4422 39.3179 26.8844 39.295 26.0312 39.0889C25.5281 38.9515 24.6859 38.6768 24.1719 38.4592C23.6688 38.2417 22.6078 37.6806 21.8203 37.2112C21.0438 36.7303 19.8078 36.0548 19.0859 35.6999C18.3641 35.3449 17.3359 34.8755 16.7891 34.6694C16.2531 34.4519 15.2688 34.1084 14.6016 33.9137C13.9453 33.7191 13.0047 33.4672 12.5234 33.3641C11.8672 33.2267 11.3203 33.2038 10.2812 33.2496C9.5375 33.284 8.61875 33.4099 8.25781 33.513C7.89687 33.616 7.18594 33.8908 6.67188 34.1198C6.16875 34.3488 5.30469 34.8526 4.76875 35.2304C4.22187 35.5968 3.34687 36.341 2.82187 36.8792L1.84844 37.8524L1.85938 46.0388C3.00781 46.1419 4.07969 46.2678 4.97656 46.3938C5.88438 46.5312 7.16406 46.7602 7.82031 46.909C8.4875 47.0693 9.61406 47.3784 10.3359 47.6074C11.0578 47.8364 12.2172 48.2486 12.9062 48.5234C13.6062 48.8097 16.1875 49.9546 18.6484 51.0767C21.1203 52.1987 23.5266 53.2521 24.0078 53.4238C24.4891 53.5841 25.3531 53.8017 25.9219 53.8933C26.5016 53.9734 27.3547 54.0536 27.8359 54.0536C28.3172 54.0536 29.1594 53.9734 29.6953 53.8818C30.2422 53.7902 31.0297 53.607 31.4453 53.4696C31.8719 53.3437 33.8187 52.5537 35.7656 51.7407C37.7234 50.9164 39.8672 50.092 40.5234 49.9088C41.1906 49.7256 42.1203 49.3707 42.6016 49.1302C43.0828 48.8898 43.8703 48.386 44.3516 48.0196C44.8328 47.6418 45.4781 47.0235 45.7844 46.6571C46.0906 46.2907 46.4953 45.7526 46.6703 45.4664C46.8563 45.1801 47.1297 44.6992 47.2828 44.3787C47.4359 44.0695 48.9125 40.5774 50.575 36.6273C52.2375 32.6657 53.5938 29.414 53.5938 29.3797C53.5938 29.3453 53.5062 29.3224 53.4078 29.3339C53.2984 29.3339 52.9156 29.4484 52.5547 29.5858C52.1937 29.7346 51.6797 29.9751 51.4062 30.1468Z" fill="#149849"/>
</svg>
