<svg width="28" height="28" viewBox="0 0 28 28" fill="none" xmlns="http://www.w3.org/2000/svg">
<circle cx="14" cy="14" r="14" fill="#149849"/>
<path fill-rule="evenodd" clip-rule="evenodd" d="M15.1271 6C15.1591 6 15.2072 6.02241 15.2328 6.04801C15.2584 6.07362 15.2808 6.12164 15.2808 6.15365C15.2808 6.18246 15.268 6.22407 15.2552 6.24328C15.2424 6.26248 15.0342 6.42893 14.7877 6.61139C14.4419 6.87067 14.3586 6.9475 14.4035 6.9635C14.4387 6.9731 14.586 6.99231 14.7365 7.00511C14.887 7.01792 15.1879 7.06273 15.4089 7.10755C15.6298 7.15236 16.0109 7.25479 16.2574 7.33802C16.504 7.41804 16.885 7.57489 17.1059 7.68373C17.3269 7.79256 17.6567 7.98142 17.8424 8.10306C18.0281 8.22469 18.2939 8.41996 18.4316 8.53199C18.5725 8.64403 18.8158 8.8649 18.9759 9.02495C19.1328 9.18499 19.3666 9.44108 19.4914 9.60113C19.6195 9.76117 19.8148 10.0269 19.9237 10.1933C20.0326 10.3598 20.2151 10.6831 20.3272 10.9135C20.4392 11.144 20.5929 11.5249 20.673 11.7618C20.753 11.9987 20.8523 12.3732 20.8971 12.5941C20.9419 12.8149 20.9932 13.1734 21.0508 13.7944L21.5183 14.4186C21.7745 14.7611 21.9922 15.0716 21.9986 15.1068C22.005 15.1421 21.989 15.1965 21.957 15.2253C21.9282 15.2573 21.8801 15.2829 21.8513 15.2829C21.8225 15.2829 21.7809 15.2701 21.7617 15.2573C21.7424 15.2445 21.5759 15.0364 21.3934 14.7899C21.1341 14.4442 21.0572 14.361 21.0412 14.4058C21.0316 14.441 21.0124 14.5883 20.9996 14.7387C20.9868 14.8892 20.9419 15.1901 20.8971 15.4109C20.8523 15.6318 20.753 16.0063 20.673 16.2432C20.5929 16.4801 20.4392 16.8642 20.3272 17.0915C20.2151 17.3187 20.0326 17.6452 19.9237 17.8117C19.8148 17.9781 19.6195 18.247 19.4914 18.4039C19.3666 18.5607 19.1264 18.8264 18.9599 18.9929C18.7934 19.1561 18.55 19.3802 18.4188 19.4858C18.2875 19.5914 18.0281 19.7803 17.8424 19.9019C17.6567 20.0236 17.3269 20.2124 17.1059 20.3213C16.885 20.4301 16.504 20.587 16.2574 20.667C16.0109 20.7502 15.6298 20.8526 15.4089 20.8975C15.1879 20.9423 14.8293 20.9935 14.2081 21.0511L13.5837 21.5184C13.2411 21.7745 12.9305 21.9922 12.8953 21.9986C12.8601 22.005 12.8057 21.989 12.7768 21.9602C12.7448 21.9314 12.7192 21.8834 12.7192 21.8514C12.7192 21.8225 12.732 21.7809 12.7448 21.7617C12.7576 21.7425 12.9658 21.5761 13.2123 21.3936C13.5581 21.1343 13.6414 21.0575 13.5965 21.0415C13.5613 21.0319 13.414 21.0127 13.2635 20.9999C13.113 20.9871 12.8121 20.9423 12.5911 20.8975C12.3702 20.8526 11.9955 20.7534 11.7586 20.6734C11.5216 20.5934 11.1406 20.4397 10.9101 20.3277C10.6827 20.2156 10.3561 20.0332 10.1896 19.9243C10.0231 19.8155 9.75734 19.6203 9.59724 19.4922C9.44035 19.3674 9.18098 19.1337 9.02408 18.9769C8.86719 18.82 8.63344 18.5607 8.50856 18.4039C8.38048 18.247 8.18516 17.9781 8.07629 17.8117C7.96742 17.6452 7.78491 17.3187 7.67284 17.0915C7.56077 16.8642 7.40707 16.4801 7.32702 16.2432C7.24697 16.0063 7.14771 15.6318 7.10288 15.4109C7.05805 15.1901 7.00682 14.8316 6.94919 14.2106L6.48169 13.5864C6.22553 13.2439 6.0078 12.9334 6.00139 12.8982C5.99499 12.8629 6.011 12.8085 6.04302 12.7765C6.07184 12.7477 6.11987 12.7221 6.14868 12.7221C6.1775 12.7221 6.21913 12.7349 6.23834 12.7477C6.25755 12.7605 6.42406 12.9686 6.60657 13.2151C6.87234 13.5704 6.94278 13.6472 6.96199 13.5992C6.9748 13.564 6.98441 13.4807 6.98441 13.4103C6.98761 13.3399 7.01002 13.1318 7.03884 12.9462C7.06446 12.7605 7.12209 12.4724 7.16372 12.306C7.20535 12.1395 7.2918 11.8514 7.35584 11.6658C7.41988 11.4801 7.56397 11.144 7.67604 10.9135C7.78491 10.6831 7.97703 10.347 8.0987 10.1613C8.22038 9.97564 8.4093 9.71636 8.51497 9.58512C8.62063 9.45388 8.84477 9.2106 9.00807 9.04415C9.17458 8.8777 9.44035 8.63762 9.59724 8.51278C9.75734 8.38475 10.0231 8.18948 10.1896 8.08065C10.3561 7.97182 10.6827 7.78936 10.9101 7.68053C11.1406 7.56849 11.4768 7.42445 11.6625 7.36042C11.8483 7.2964 12.1364 7.20998 12.3029 7.16837C12.4694 7.12675 12.7576 7.07234 12.9433 7.04353C13.1291 7.01792 13.3948 6.98911 13.7919 6.9539L14.4323 6.47695C14.7813 6.21447 15.0951 6 15.1271 6V6ZM12.9914 7.36042C12.8153 7.38923 12.5271 7.44685 12.351 7.49167C12.1749 7.53648 11.8803 7.62611 11.6946 7.69333C11.5088 7.76055 11.2111 7.89179 11.0317 7.98142C10.8492 8.07105 10.6059 8.20549 10.4874 8.27591C10.3657 8.34953 10.1416 8.50638 9.98148 8.62162C9.82459 8.74006 9.54281 8.98013 9.36029 9.15299C9.17778 9.32904 8.93763 9.58192 8.82876 9.71316C8.71669 9.8444 8.53098 10.0973 8.4125 10.2733C8.29403 10.4494 8.0923 10.8111 7.96422 11.0736C7.83294 11.3393 7.67604 11.7106 7.612 11.9058C7.54796 12.1011 7.46151 12.4308 7.41988 12.6421C7.37825 12.8533 7.33022 13.1542 7.31742 13.3079C7.30461 13.4647 7.2982 13.596 7.30781 13.6024C7.31742 13.6088 7.46151 13.4327 7.62801 13.2119C7.79451 12.9878 7.95141 12.7861 7.97383 12.7637C7.99624 12.7413 8.04427 12.7221 8.07949 12.7221C8.11151 12.7221 8.16274 12.7477 8.19156 12.7765C8.22038 12.8085 8.23639 12.8629 8.22999 12.8982C8.22358 12.9334 8.00264 13.2439 7.74328 13.5864L7.27259 14.2106C7.32702 14.806 7.37825 15.1517 7.41988 15.3629C7.46151 15.5742 7.56397 15.9423 7.64402 16.1792C7.72727 16.4161 7.88417 16.7906 7.99624 17.0114C8.10831 17.2323 8.28762 17.5428 8.39329 17.6997C8.49896 17.8565 8.67507 18.103 8.79034 18.2438C8.90241 18.3847 9.14896 18.6472 9.33788 18.8296C9.5236 19.0089 9.81178 19.2553 9.97508 19.377C10.1352 19.4954 10.3657 19.6555 10.4874 19.7291C10.6059 19.7995 10.862 19.9404 11.0542 20.0364C11.2495 20.1324 11.6177 20.2829 11.8803 20.3693C12.1396 20.4557 12.5111 20.5549 12.7032 20.5934C12.8985 20.6318 13.1771 20.6734 13.3212 20.6862C13.4685 20.699 13.5933 20.7022 13.5997 20.6926C13.6062 20.683 13.43 20.5389 13.2091 20.3725C12.985 20.206 12.7832 20.0492 12.7608 20.0268C12.7384 20.0076 12.7192 19.9596 12.7192 19.9243C12.7192 19.8891 12.7448 19.8379 12.7768 19.8091C12.8057 19.7803 12.8601 19.7643 12.8953 19.7707C12.9305 19.7771 13.2411 19.998 13.5837 20.2573L14.2081 20.7278C14.8037 20.6734 15.1495 20.6222 15.3609 20.5806C15.5722 20.5389 15.9404 20.4365 16.1774 20.3565C16.4143 20.2733 16.7889 20.1164 17.0099 20.0044C17.2308 19.8923 17.5414 19.7131 17.6983 19.6075C17.8584 19.5018 18.1018 19.3226 18.2427 19.2105C18.3835 19.0953 18.6429 18.8552 18.819 18.6728C18.9983 18.4903 19.2353 18.2182 19.3473 18.0678C19.4594 17.9173 19.6195 17.6869 19.7028 17.5556C19.7828 17.4244 19.9333 17.1523 20.0326 16.9538C20.1318 16.7586 20.2823 16.384 20.3688 16.1248C20.4552 15.8623 20.5577 15.4942 20.5929 15.2989C20.6314 15.1036 20.673 14.8252 20.6858 14.6811C20.6986 14.5339 20.7018 14.409 20.6922 14.4026C20.6826 14.3962 20.5385 14.5723 20.372 14.7931C20.2055 15.0172 20.0486 15.2189 20.0262 15.2413C20.0038 15.2637 19.9557 15.2829 19.9205 15.2829C19.8885 15.2829 19.8373 15.2573 19.8084 15.2253C19.7796 15.1965 19.7636 15.1421 19.77 15.1068C19.7764 15.0716 19.9974 14.7611 20.2567 14.4186L20.7274 13.7944C20.673 13.199 20.6282 12.8757 20.5929 12.6901C20.5577 12.5044 20.4584 12.1459 20.3752 11.8898C20.2887 11.6338 20.1382 11.2592 20.0358 11.0576C19.9333 10.8559 19.7828 10.5806 19.7028 10.4494C19.6195 10.3181 19.4594 10.0877 19.3473 9.93723C19.2353 9.78678 19.0047 9.5243 18.835 9.34825C18.6685 9.17539 18.422 8.94492 18.2907 8.83289C18.1594 8.72085 17.9064 8.53519 17.7303 8.41675C17.5542 8.30152 17.2308 8.11266 17.0099 8.00062C16.7889 7.88859 16.4143 7.73174 16.1774 7.64851C15.9404 7.56849 15.5722 7.46606 15.3609 7.42445C15.1495 7.38283 14.8485 7.33482 14.6948 7.32201C14.5379 7.30921 14.4067 7.30281 14.4003 7.31241C14.3938 7.32201 14.57 7.46606 14.7909 7.63251C15.015 7.79896 15.2168 7.95581 15.2392 7.97822C15.2616 7.99742 15.2808 8.04544 15.2808 8.08065C15.2808 8.11586 15.2584 8.16708 15.2296 8.19269C15.204 8.21829 15.1559 8.2407 15.1271 8.2407C15.0983 8.2407 14.7845 8.02623 14.4323 7.76055C13.8751 7.34442 13.7759 7.2836 13.6798 7.2868C13.619 7.29 13.5101 7.29641 13.4396 7.30281C13.3692 7.30921 13.1675 7.33482 12.9914 7.36042ZM16.1614 10.5294C16.4623 10.5358 16.837 10.5646 16.9939 10.5902C17.154 10.619 17.3013 10.6575 17.3237 10.6799C17.3461 10.7023 17.3845 10.8527 17.4101 11.0096C17.4358 11.1664 17.4678 11.4929 17.4774 11.7298C17.4902 11.9859 17.4838 12.3124 17.4614 12.53C17.439 12.7317 17.3941 13.0294 17.3621 13.1862C17.3301 13.3431 17.2628 13.596 17.2148 13.7464C17.17 13.8969 17.0739 14.1497 17.0035 14.3066C16.9362 14.4634 16.805 14.7163 16.7153 14.8668C16.6256 15.0172 16.4623 15.2541 16.3567 15.3949C16.251 15.5358 16.0461 15.7663 15.9052 15.9071C15.7643 16.0479 15.5338 16.2528 15.3929 16.3584C15.252 16.4641 15.0214 16.6209 14.8806 16.7073C14.7397 16.7938 14.5251 16.909 14.4003 16.9634C14.2754 17.021 14.0544 17.1107 13.9039 17.1651C13.7534 17.2163 13.4653 17.2963 13.2635 17.3411C13.0618 17.3892 12.7288 17.4404 12.5271 17.4628C12.3093 17.4852 11.9795 17.4916 11.7266 17.4788C11.4896 17.4692 11.1566 17.4372 10.9901 17.4116C10.8236 17.386 10.6763 17.3539 10.6603 17.3411C10.6475 17.3251 10.6155 17.1779 10.5899 17.0114C10.5642 16.845 10.5322 16.5057 10.5226 16.2592C10.5098 15.9871 10.5162 15.6734 10.5386 15.459C10.561 15.2637 10.5995 14.998 10.6251 14.8668C10.6507 14.7355 10.7147 14.4891 10.766 14.3226C10.8172 14.1561 10.9101 13.8969 10.9741 13.7464C11.0381 13.596 11.1566 13.3591 11.2367 13.2183C11.3167 13.0774 11.4832 12.8245 11.6081 12.6581C11.733 12.4916 11.9539 12.2387 12.0948 12.0979C12.2357 11.9571 12.4887 11.7362 12.6552 11.6114C12.8217 11.4865 13.0746 11.3201 13.2155 11.24C13.3564 11.16 13.5933 11.0416 13.7438 10.9776C13.8943 10.9135 14.1537 10.8207 14.3202 10.7695C14.4867 10.7183 14.7397 10.6543 14.8806 10.6254C15.0214 10.5998 15.2456 10.5614 15.3769 10.5454C15.5081 10.5294 15.8604 10.523 16.1614 10.5294ZM14.8485 10.9648C14.6724 11.0032 14.4195 11.0672 14.2882 11.112C14.1569 11.1568 13.8975 11.2624 13.7118 11.3521C13.5261 11.4385 13.3052 11.5537 13.2155 11.6114C13.1291 11.6658 12.9465 11.7938 12.8153 11.893C12.684 11.9923 12.463 12.1875 12.3221 12.3252C12.1845 12.466 11.9891 12.6869 11.8899 12.8181C11.7906 12.9494 11.6625 13.1286 11.6081 13.2183C11.5505 13.3047 11.4352 13.5288 11.3487 13.7144C11.2591 13.9001 11.1534 14.1593 11.1086 14.2906C11.0638 14.4218 10.9997 14.6683 10.9645 14.8348C10.9261 15.0012 10.8812 15.3053 10.8588 15.507C10.8364 15.7246 10.83 16.0479 10.8428 16.2912C10.8524 16.5185 10.8716 16.7426 10.8812 16.7874C10.9005 16.861 10.9581 16.813 11.6177 16.1472L12.335 15.4269C12.335 14.169 12.3414 14.0601 12.3862 14.0185C12.4118 13.9929 12.463 13.9705 12.4983 13.9705C12.5303 13.9705 12.5815 13.9929 12.6071 14.0185C12.6456 14.0569 12.6552 14.1658 12.6552 14.5883V15.1068L13.4557 14.3066C13.4557 13.3143 13.4685 12.9942 13.4813 12.9526C13.4941 12.9078 13.5389 12.8693 13.5837 12.8597C13.6286 12.8501 13.6862 12.8565 13.7118 12.8725C13.7502 12.8982 13.7599 13.0038 13.7695 13.4231C13.7727 13.7048 13.7855 13.9385 13.8015 13.9385C13.8143 13.9385 14.0736 13.692 14.3778 13.3943C14.7108 13.0678 14.9574 12.8501 14.9958 12.8501C15.0278 12.8501 15.0791 12.8725 15.1047 12.8982C15.1303 12.9238 15.1527 12.9782 15.1527 13.0166C15.1527 13.0678 14.983 13.2599 14.5988 13.644L14.048 14.1946C14.9798 14.1914 15.0471 14.201 15.0951 14.249C15.1271 14.281 15.1527 14.329 15.1527 14.3546C15.1527 14.3802 15.1303 14.4282 15.0983 14.457C15.0471 14.5051 14.9606 14.5147 14.3778 14.5147H13.715L12.9273 15.3149C13.6606 15.3149 13.9007 15.3277 13.936 15.3469C13.9776 15.3661 14 15.4109 14 15.4654C14 15.5166 13.984 15.5742 13.9616 15.5934C13.9328 15.6254 13.7502 15.635 13.2635 15.635H12.6039C11.1918 17.0435 11.1406 17.1011 11.2143 17.1203C11.2591 17.1299 11.4832 17.1491 11.7106 17.1587C11.9539 17.1715 12.2773 17.1651 12.4951 17.1427C12.6968 17.1203 13.001 17.0755 13.1675 17.037C13.334 17.0018 13.6158 16.9218 13.7919 16.861C13.968 16.8002 14.2626 16.6721 14.4483 16.5761C14.634 16.4801 14.919 16.3072 15.0855 16.1856C15.2488 16.0671 15.521 15.8335 15.6875 15.667C15.8508 15.5006 16.0813 15.2317 16.1934 15.0748C16.3086 14.918 16.4784 14.6363 16.5744 14.4506C16.6705 14.265 16.7986 13.9705 16.8594 13.7944C16.9202 13.6184 17.0003 13.3367 17.0355 13.1702C17.0739 13.0038 17.1188 12.6933 17.1412 12.482C17.1636 12.2612 17.17 11.9347 17.1572 11.7138C17.1476 11.5025 17.1252 11.2432 17.1059 11.1376C17.0867 11.032 17.0707 10.9423 17.0643 10.9391C17.0611 10.9327 16.9779 10.9167 16.8818 10.8975C16.7857 10.8815 16.4752 10.8591 16.1934 10.8527C15.9116 10.8431 15.5658 10.8495 15.4249 10.8655C15.284 10.8815 15.0246 10.9263 14.8485 10.9648Z" fill="white"/>
</svg>
