<svg width="28" height="28" viewBox="0 0 28 28" fill="none" xmlns="http://www.w3.org/2000/svg">
<circle cx="14" cy="14" r="14" fill="#149849"/>
<path fill-rule="evenodd" clip-rule="evenodd" d="M11.4625 7.65625H14.9297L14.9844 7.73281C15.0172 7.77383 15.0418 7.83398 15.0391 7.86953C15.0391 7.90234 14.9106 8.38086 14.7492 8.93594C14.5906 9.48828 14.4566 9.95859 14.4484 9.98047C14.4402 10.0105 14.484 10.0406 14.607 10.0871C14.7027 10.1227 14.8914 10.2074 15.0254 10.2758C15.1621 10.3414 15.3563 10.4535 15.4629 10.5191C15.5695 10.5875 15.7227 10.6996 15.8047 10.768C15.8867 10.8363 16.0125 10.9484 16.0836 11.0168C16.1902 11.118 16.2066 11.1508 16.1793 11.1809C16.1602 11.2 16.0891 11.2656 15.8867 11.4297L15.6899 11.2492C15.5805 11.148 15.4055 11.0086 15.2988 10.9375C15.1922 10.8691 15.0391 10.7734 14.957 10.7242C14.875 10.6777 14.6973 10.5984 14.5606 10.5438C14.4266 10.4918 14.216 10.4262 14.0957 10.3961C13.9754 10.366 13.8441 10.3359 13.8031 10.3305C13.7621 10.325 13.7293 10.3305 13.7266 10.3414C13.7266 10.3551 13.9891 10.7023 14.309 11.1152C14.6262 11.5281 14.8887 11.8781 14.8887 11.8918C14.8887 11.9055 14.8149 11.9738 14.5606 12.168L14.3965 11.952C14.3063 11.8344 14.0547 11.509 13.4395 10.7188L13.4258 12.6875H12.9883L12.9746 10.7188L12.5781 11.2273C12.3594 11.509 12.1078 11.8344 11.8535 12.1625L11.684 12.0367C11.591 11.9656 11.5145 11.9027 11.5117 11.8945C11.5117 11.8863 11.7824 11.5363 12.1106 11.1152C12.4387 10.6941 12.7039 10.3414 12.6984 10.3277C12.693 10.3168 12.5918 10.3277 12.477 10.3523C12.3594 10.377 12.1352 10.4426 11.9766 10.4973C11.818 10.552 11.5801 10.6586 11.4434 10.7324C11.3094 10.8063 11.1043 10.9375 10.9922 11.0223C10.8801 11.107 10.6805 11.2902 10.5492 11.427C10.4152 11.5637 10.2348 11.7906 10.1418 11.9273C10.0516 12.0668 9.93126 12.2746 9.87931 12.3867C9.82735 12.4988 9.74806 12.6957 9.70704 12.8242C9.66602 12.9527 9.61134 13.1742 9.58673 13.3164C9.56212 13.4586 9.41173 14.7766 9.25313 16.2422C9.05899 18.0441 8.96876 18.9711 8.97696 19.0996C8.98516 19.2309 9.00977 19.332 9.05626 19.4277C9.09454 19.5016 9.17931 19.6137 9.24493 19.6711C9.31056 19.7312 9.41993 19.8051 9.48829 19.8352C9.6004 19.8871 9.67149 19.8926 11.0195 19.9062V20.3438H10.3168C9.63048 20.3438 9.60587 20.341 9.41993 20.2754C9.31329 20.2371 9.19845 20.1852 9.16016 20.1605C9.12188 20.1359 9.03712 20.073 8.97149 20.0184C8.90587 19.9637 8.8047 19.8461 8.74454 19.7559C8.68712 19.6656 8.61329 19.5125 8.58321 19.4141C8.55313 19.3102 8.53126 19.157 8.53126 19.0449C8.53126 18.9383 8.66798 17.6039 8.83204 16.0781C8.99884 14.5523 9.15743 13.1988 9.18751 13.0703C9.21485 12.9418 9.27774 12.7258 9.32423 12.5918C9.37345 12.4578 9.46095 12.2473 9.5211 12.127C9.58126 12.0066 9.6879 11.8207 9.75626 11.7168C9.82188 11.6129 9.94766 11.4379 10.0352 11.334C10.1199 11.2301 10.2867 11.0523 10.407 10.943C10.5246 10.8309 10.7516 10.6559 10.9102 10.5492C11.0688 10.4426 11.2656 10.3223 11.3477 10.2812C11.4297 10.2402 11.5883 10.1719 11.6977 10.1281C11.807 10.0844 11.8945 10.0406 11.8945 10.027C11.8945 10.016 11.7715 9.54844 11.6211 8.98789C11.4734 8.43008 11.3422 7.94063 11.334 7.90234C11.3203 7.85313 11.334 7.80938 11.3887 7.74375L11.4625 7.65625ZM12.0832 9.02344L12.3238 9.91211C12.4469 9.90937 12.5945 9.8957 12.7285 9.87656C12.8652 9.86016 13.0813 9.84648 13.207 9.84648C13.3356 9.84648 13.5461 9.85742 13.6719 9.87383C13.8004 9.89023 13.9289 9.90664 13.959 9.90937C14.0027 9.91211 14.0219 9.87109 14.0875 9.65234C14.1285 9.51016 14.2461 9.10273 14.3473 8.74453L14.5332 8.09648C12.4469 8.09648 11.8426 8.10469 11.8426 8.11562C11.8426 8.12656 11.952 8.53672 12.0832 9.02617V9.02344ZM15.7473 11.8125H18.1016L18.1699 11.8809C18.2082 11.9164 18.2383 11.9738 18.2383 12.0039C18.2383 12.0312 18.1535 12.3621 18.0469 12.734C17.9402 13.1059 17.8473 13.4258 17.8418 13.4449C17.8336 13.4641 17.8637 13.4941 17.9047 13.5105C17.9457 13.527 18.0606 13.5789 18.1563 13.6227C18.2547 13.6664 18.4215 13.7594 18.5254 13.8305C18.632 13.8988 18.7961 14.0301 18.8918 14.123C18.9875 14.2133 19.1406 14.3855 19.2309 14.5059C19.3211 14.6234 19.4469 14.834 19.5125 14.9707C19.5781 15.1047 19.6629 15.3316 19.7012 15.4766C19.7531 15.6762 19.8078 16.1055 19.9363 17.3906C20.084 18.8754 20.1004 19.0641 20.0703 19.2363C20.0539 19.3402 20.0047 19.4988 19.9637 19.5918C19.9199 19.682 19.8297 19.816 19.7641 19.8926C19.6984 19.9664 19.5754 20.0703 19.4934 20.1223C19.4141 20.177 19.2664 20.2453 19.168 20.2809C18.9957 20.341 18.9629 20.341 16.707 20.3438V19.9062L17.85 19.898C18.9766 19.8926 18.993 19.8898 19.127 19.8297C19.2035 19.7941 19.3238 19.7066 19.3949 19.6383C19.466 19.5672 19.5481 19.4523 19.5754 19.3867C19.6055 19.3184 19.6356 19.2117 19.6465 19.1543C19.6574 19.0859 19.5973 18.3969 19.4988 17.418C19.4086 16.5211 19.3129 15.709 19.2883 15.6133C19.2637 15.5148 19.1981 15.3344 19.1434 15.2168C19.0887 15.0965 19.0012 14.9352 18.952 14.8613C18.9 14.7848 18.8043 14.6617 18.7359 14.5879C18.6676 14.5113 18.5309 14.3855 18.4324 14.3063C18.334 14.227 18.1727 14.1203 18.0742 14.0684C17.9785 14.0164 17.8227 13.948 17.7324 13.918C17.6422 13.8879 17.5465 13.8605 17.5219 13.8605C17.4891 13.8605 17.6313 14.0437 18.4024 14.9434L18.2465 15.0855C18.159 15.1621 18.0824 15.2277 18.0742 15.2277C18.0688 15.2277 17.8582 14.9898 17.1582 14.1695L17.1445 15.5312H16.707L16.6934 14.1695L16.2422 14.6973C15.9961 14.9898 15.7856 15.2277 15.7774 15.2277C15.7719 15.2277 15.6926 15.1621 15.4492 14.9434L15.9141 14.402C16.2613 14 16.3652 13.8633 16.3242 13.8633C16.2941 13.8633 16.1738 13.8988 16.059 13.9426C15.9414 13.9891 15.7719 14.0684 15.6816 14.1203C15.5914 14.175 15.5121 14.2105 15.5039 14.1969C15.493 14.1859 15.441 14.1148 15.3863 14.041C15.3316 13.9645 15.2879 13.8906 15.2879 13.877C15.2879 13.8605 15.3699 13.8004 15.4711 13.7402C15.5723 13.6828 15.7363 13.6008 15.832 13.5598C15.9742 13.5023 16.0098 13.4777 16.0016 13.434C15.9961 13.4066 15.9086 13.084 15.8047 12.7203C15.6981 12.3566 15.616 12.0312 15.616 12.0012C15.616 11.9711 15.6461 11.9164 15.6816 11.8781L15.7473 11.8125ZM16.2859 12.8242L16.4391 13.3574H17.4152C17.6504 12.5316 17.7188 12.2828 17.7188 12.2719C17.7188 12.2582 17.3633 12.25 16.9258 12.25C16.491 12.25 16.1328 12.2582 16.1328 12.2719C16.1328 12.2828 16.2012 12.5316 16.2859 12.8242ZM18.5582 12.8516C18.5637 12.8516 18.6375 12.8871 18.725 12.9309C18.8098 12.9746 18.9738 13.0758 19.0859 13.1551C19.1981 13.2344 19.3949 13.3984 19.5207 13.5215C19.6465 13.6418 19.8242 13.8387 19.9145 13.959C20.0047 14.0793 20.125 14.257 20.1797 14.3555C20.2371 14.4539 20.3301 14.6453 20.3848 14.7793C20.4422 14.916 20.516 15.1375 20.5488 15.2715C20.5844 15.4082 20.6199 15.5586 20.6281 15.6078C20.6391 15.6661 20.6336 15.699 20.6117 15.7063C20.5926 15.7117 20.4969 15.7254 20.2207 15.7555L20.1441 15.4465C20.1004 15.2742 20.0156 15.0254 19.9582 14.8887C19.8981 14.7547 19.7723 14.525 19.6766 14.3828C19.5809 14.2406 19.4141 14.0301 19.302 13.9152C19.1899 13.8031 19.0203 13.65 18.9219 13.5789C18.8234 13.5078 18.6621 13.3984 18.5609 13.341C18.4598 13.2836 18.375 13.2289 18.375 13.2207C18.375 13.2125 18.416 13.1277 18.4625 13.0293C18.509 12.9309 18.5527 12.8516 18.5582 12.8516ZM12.6848 14.2188H15.0391L15.1074 14.2871C15.1457 14.3254 15.1758 14.3801 15.1758 14.4102C15.1758 14.4402 15.091 14.7684 14.9844 15.143C14.8777 15.5148 14.7848 15.8402 14.7793 15.8676C14.7684 15.9031 14.8176 15.9387 14.9926 16.0234C15.1156 16.0836 15.3207 16.2148 15.4465 16.316C15.575 16.4199 15.75 16.5949 15.8375 16.707C15.925 16.8191 16.0535 17.0242 16.1191 17.1582C16.1875 17.2949 16.2668 17.4973 16.2941 17.6094C16.3215 17.7215 16.3844 18.066 16.4336 18.375C16.4965 18.7742 16.5184 18.9902 16.5102 19.127C16.502 19.2336 16.4719 19.3867 16.4418 19.4688C16.4145 19.5508 16.3516 19.6738 16.3051 19.7422C16.2586 19.8105 16.1738 19.9117 16.1164 19.9719C16.059 20.0293 15.9606 20.1059 15.9004 20.1414C15.8402 20.177 15.7117 20.2371 15.4356 20.3438H12.291L12.1133 20.2754C12.0149 20.2371 11.8863 20.177 11.8262 20.1414C11.766 20.1059 11.6703 20.0293 11.6129 19.9719C11.5527 19.9117 11.4734 19.816 11.4297 19.7559C11.3887 19.6957 11.3258 19.5781 11.293 19.4961C11.2602 19.4113 11.2274 19.2582 11.2191 19.1406C11.2082 18.9875 11.2274 18.7934 11.293 18.375C11.3422 18.066 11.4051 17.7215 11.4352 17.6094C11.4625 17.4973 11.5418 17.2949 11.6074 17.1582C11.6731 17.0242 11.8016 16.8191 11.8891 16.707C11.9766 16.5949 12.1543 16.4199 12.2801 16.316C12.4059 16.2148 12.6109 16.0836 12.7367 16.0234C12.9117 15.9387 12.9582 15.9031 12.95 15.8676C12.9418 15.8402 12.8516 15.5148 12.7449 15.143C12.6383 14.7684 12.5508 14.4402 12.5535 14.4102C12.5535 14.3773 12.5836 14.3227 12.6191 14.2871L12.6848 14.2188ZM13.084 14.7301C13.0922 14.7711 13.1633 15.0281 13.2426 15.2988L13.3848 15.791C13.5543 15.7691 13.7211 15.7637 13.8633 15.7637C14.0055 15.7637 14.1723 15.7691 14.2324 15.7773L14.3418 15.791C14.5633 15.0281 14.6344 14.7711 14.6426 14.7301L14.6563 14.6562H13.0649L13.084 14.7301ZM12.857 16.4473C12.775 16.491 12.6328 16.5922 12.5371 16.6715C12.4387 16.748 12.3074 16.8848 12.2391 16.9723C12.1707 17.057 12.0723 17.2074 12.0231 17.3059C11.9711 17.4043 11.9027 17.5711 11.8727 17.675C11.8426 17.7816 11.777 18.1125 11.7305 18.4133C11.6703 18.7961 11.6484 19.0094 11.6594 19.1242C11.6703 19.2254 11.7031 19.3457 11.7524 19.4359C11.7988 19.5262 11.8836 19.6301 11.9656 19.6984C12.0395 19.7586 12.1707 19.8297 12.2527 19.857C12.3895 19.9008 12.5399 19.9035 13.9207 19.898C15.4301 19.8898 15.4383 19.8898 15.5668 19.8297C15.6379 19.7941 15.7527 19.7121 15.8211 19.6438C15.8895 19.5754 15.9688 19.4633 16.0016 19.3922C16.0344 19.3184 16.0672 19.1926 16.0727 19.1105C16.0809 19.0148 16.0563 18.7578 16.0016 18.4133C15.9551 18.1125 15.8895 17.7816 15.8594 17.675C15.8266 17.5711 15.7691 17.4234 15.7336 17.3469C15.6953 17.273 15.6106 17.1363 15.5477 17.0461C15.482 16.9559 15.3699 16.8273 15.2988 16.759C15.225 16.6906 15.102 16.5922 15.0281 16.5402C14.9516 16.4883 14.8176 16.4145 14.7274 16.3734C14.6371 16.3324 14.5168 16.2859 14.4594 16.2695C14.3801 16.2449 14.3609 16.2477 14.3664 16.275C14.3719 16.2914 14.5441 16.543 14.7492 16.8273C14.9543 17.1145 15.1211 17.3551 15.1238 17.3688C15.1238 17.3797 15.0609 17.4316 14.9871 17.4836C14.9106 17.5355 14.8313 17.5848 14.8094 17.593C14.7793 17.6039 14.6672 17.4645 14.432 17.1363L14.0984 16.666L14.0848 17.716H13.6473L13.6336 16.666C13.1141 17.3961 12.9582 17.6066 12.95 17.6066C12.9418 17.6066 12.8625 17.5547 12.7695 17.4918C12.6793 17.4262 12.6055 17.3687 12.6082 17.3605C12.6082 17.3523 12.7777 17.1145 12.9801 16.8273C13.1852 16.543 13.3574 16.2914 13.3629 16.275C13.3684 16.2559 13.3684 16.2395 13.3656 16.2395C13.3629 16.2395 13.2809 16.2695 13.1824 16.3023C13.084 16.3379 12.9391 16.4035 12.857 16.4473ZM8.15938 15.0746C8.2086 15.0828 8.30431 15.0965 8.3754 15.1047C8.49298 15.1184 8.50391 15.1238 8.49298 15.1813C8.48751 15.2141 8.47384 15.3125 8.45196 15.5559L8.32071 15.5422C8.24962 15.534 8.15118 15.5203 8.10196 15.5148C8.01446 15.5012 8.01446 15.5012 8.02813 15.3727C8.03634 15.2988 8.05001 15.2004 8.05821 15.1512C8.07188 15.0691 8.08009 15.0637 8.15938 15.0746ZM10.2402 9.95039C10.2539 9.95039 10.3168 10.027 10.4973 10.2922L10.3688 10.3934C10.3004 10.448 10.1336 10.6012 9.99962 10.7352C9.86563 10.8664 9.67423 11.0879 9.57306 11.2219C9.47188 11.3586 9.33243 11.5664 9.26134 11.6867C9.19298 11.807 9.08634 12.0203 9.02618 12.1598C8.96602 12.2965 8.88126 12.5371 8.83751 12.693C8.79376 12.8461 8.73907 13.0895 8.71446 13.2316C8.69259 13.3738 8.6461 13.7512 8.61329 14.0656C8.58048 14.3828 8.54493 14.648 8.53673 14.659C8.52852 14.6699 8.43282 14.6672 8.32891 14.6535C8.22227 14.6398 8.13204 14.6207 8.12384 14.6125C8.11563 14.6043 8.14298 14.2926 8.18673 13.9207C8.22774 13.5488 8.2879 13.1223 8.31798 12.9719C8.34806 12.8215 8.41095 12.5809 8.45743 12.4387C8.50391 12.2965 8.58595 12.075 8.64063 11.9465C8.69532 11.818 8.81016 11.5965 8.89493 11.4543C8.97696 11.3121 9.12188 11.0934 9.21485 10.9703C9.30509 10.8445 9.47735 10.6422 9.5922 10.5219C9.70977 10.3988 9.89845 10.2211 10.0106 10.1254C10.1227 10.0297 10.2266 9.95312 10.2402 9.95039Z" fill="white"/>
</svg>
