<svg width="56" height="56" viewBox="0 0 56 56" fill="none" xmlns="http://www.w3.org/2000/svg">
<path fill-rule="evenodd" clip-rule="evenodd" d="M19.6065 0C19.9572 0 20.8574 0.0931587 21.5939 0.221252C22.3304 0.3377 23.3592 0.582242 23.8736 0.745269C24.388 0.919942 25.3583 1.33916 26.0364 1.6885C26.7145 2.03785 27.6731 2.63173 28.1875 2.99272C28.6902 3.35371 29.2514 3.83115 29.4384 4.04076C29.684 4.30859 29.7541 4.48326 29.7073 4.68122C29.6723 4.82096 29.5086 5.05386 29.3566 5.20524C29.2046 5.34498 29.0059 5.46143 28.9357 5.46143C28.8539 5.47307 28.3044 5.12373 27.7316 4.69287C27.1587 4.27365 26.2819 3.69141 25.8026 3.41194C25.3233 3.12082 24.5049 2.73654 23.9905 2.53857C23.4761 2.34061 22.5525 2.07278 21.9446 1.94469C21.3367 1.82824 20.6353 1.73508 19.9455 1.7933L27.0301 11.3886L30.4205 12.0408C32.2793 12.3901 33.9277 12.7162 34.0797 12.7394C34.22 12.7744 34.3369 12.7394 34.3369 12.6812C34.3369 12.6114 34.0212 12.0524 33.6238 11.4236C33.2263 10.8064 32.5482 9.80495 32.104 9.21106C31.6129 8.55895 31.2973 8.02329 31.2973 7.84862C31.2973 7.68559 31.4025 7.45269 31.5311 7.3246C31.6597 7.19651 31.9052 7.0917 32.0923 7.0917C32.3027 7.0917 32.5365 7.2198 32.7703 7.46434C32.9691 7.67394 33.425 8.24454 33.7757 8.72198C34.1265 9.19942 34.6993 10.0378 35.0383 10.5852C35.3774 11.1325 35.845 11.9243 36.0788 12.3435C36.4296 12.9956 36.6634 13.2402 37.4934 13.8574C38.0429 14.2533 38.9898 15.0801 39.5978 15.6739C40.2057 16.2678 40.7318 16.7336 40.7669 16.7103C40.8019 16.6754 40.7552 16.198 40.6733 15.6274C40.5798 14.9985 40.5447 14.067 40.5798 13.2052C40.6266 12.1805 40.7201 11.5284 40.9305 10.7831C41.0942 10.2242 41.3865 9.46725 41.5735 9.09461C41.7606 8.73362 42.1464 8.11645 42.4386 7.73217C42.7192 7.34789 43.3505 6.66084 43.8182 6.21834C44.2975 5.76419 45.186 5.0655 45.7939 4.65793C46.4018 4.25036 47.454 3.65648 48.1321 3.34207C48.8101 3.01601 50.0844 2.51528 50.9729 2.21252C52.4928 1.71179 52.6097 1.6885 52.9019 1.85153C53.1241 1.96798 53.428 2.44541 53.919 3.42358C54.3048 4.19214 54.8075 5.4032 55.053 6.10189C55.2869 6.81223 55.5908 7.93013 55.7428 8.60553C55.9532 9.57205 56 10.1892 56 11.575C56 12.984 55.9532 13.4964 55.7428 14.2533C55.6142 14.7656 55.3219 15.5575 55.0998 16C54.8777 16.4425 54.4334 17.1528 54.1178 17.5721C53.8021 17.9913 53.1591 18.69 52.6798 19.1325C52.2005 19.5633 51.3354 20.2387 50.7625 20.623C50.1897 21.0073 49.1842 21.5779 48.5413 21.8806C47.8983 22.1834 46.8928 22.6026 46.32 22.8122C45.7471 23.0218 45.1977 23.2082 45.1275 23.2314C45.0223 23.2664 45.0925 23.5691 45.373 24.2911C45.5952 24.8617 45.9108 25.7584 46.0628 26.3057C46.2265 26.853 46.472 27.9709 46.624 28.8093C46.8227 29.9971 46.8812 30.7773 46.8928 32.4192C46.8928 33.5721 46.8227 35.016 46.7409 35.6215C46.659 36.2271 46.4369 37.3333 46.2615 38.067C46.0745 38.8006 45.7588 39.8836 45.5601 40.4541C45.3497 41.0247 44.9405 42.0262 44.6365 42.6667C44.3326 43.3071 43.7714 44.3319 43.3856 44.9374C43.0115 45.5429 42.2984 46.5444 41.8073 47.1499C41.3163 47.7555 40.3927 48.7569 39.7614 49.3741C39.1301 49.9796 38.1013 50.853 37.4934 51.2955C36.8855 51.7496 35.9853 52.3552 35.506 52.6463C35.0267 52.9374 34.3369 53.3217 33.9862 53.4964C33.6355 53.671 32.7937 54.0437 32.1156 54.3115C31.4376 54.5793 30.3854 54.9403 29.7775 55.1033C29.1696 55.278 27.8719 55.5458 26.9132 55.7089C25.6389 55.9185 24.7153 56 23.5463 56C22.4941 56 21.4185 55.9185 20.4014 55.7555C19.548 55.6274 18.3439 55.3945 17.7359 55.2431C17.128 55.0917 16.146 54.8006 15.5731 54.591C15.0003 54.393 13.9949 53.9854 13.3519 53.6827C12.7089 53.3799 11.7385 52.8559 11.1891 52.5182C10.6396 52.1688 9.79786 51.5983 9.31853 51.2373C8.83921 50.8879 7.89225 50.0611 7.22588 49.4207C6.5595 48.7802 5.70607 47.8603 5.30858 47.3828C4.92278 46.9054 4.25641 45.9854 3.82385 45.345C3.40298 44.7045 2.75998 43.575 2.39757 42.8413C2.03515 42.1077 1.52075 40.8734 1.25187 40.1048C0.994668 39.3362 0.643943 38.0786 0.491962 37.31C0.339981 36.5415 0.152928 35.2256 0.0710923 34.3988C0.000947388 33.5255 -0.0224343 32.3377 0.024329 31.6041C0.0594015 30.8937 0.152928 29.9622 0.223073 29.508C0.281527 29.0539 0.410126 28.5764 0.503653 28.425C0.620561 28.2387 0.784233 28.1688 1.0765 28.1688C1.34929 28.1688 1.57141 28.2542 1.74288 28.425C1.95332 28.6579 1.9767 28.7744 1.90655 29.2169C1.85979 29.508 1.77795 30.3464 1.70781 31.0801C1.64935 31.8137 1.62597 32.9432 1.66104 33.5837C1.70781 34.2242 1.81303 35.2489 1.89486 35.8544C1.98839 36.46 2.19882 37.4847 2.36249 38.1252C2.53786 38.7656 2.84182 39.7322 3.05225 40.2795C3.26269 40.8268 3.68356 41.7584 3.98752 42.3406C4.27979 42.9345 4.80588 43.8544 5.14491 44.3785C5.49564 44.9141 6.09187 45.7409 6.47766 46.2183C6.86346 46.6958 7.76366 47.639 8.46511 48.3144C9.16655 48.9898 10.2304 49.8865 10.8383 50.3173C11.4463 50.7482 12.5569 51.4119 13.2934 51.7962C14.0299 52.1805 15.047 52.6463 15.5381 52.8442C16.0408 53.0422 17.0462 53.3566 17.7593 53.5546C18.4841 53.7409 19.6298 53.9854 20.3079 54.0902C21.0444 54.2067 22.2837 54.2766 23.406 54.2882C24.4348 54.2882 25.7208 54.23 26.2702 54.1485C26.8197 54.067 27.7082 53.9039 28.2577 53.7758C28.8071 53.6594 29.7541 53.3916 30.362 53.1936C30.9699 52.9956 32.1624 52.5065 32.9925 52.099C33.8225 51.6914 34.9565 51.0626 35.506 50.7016C36.0555 50.329 36.8621 49.7351 37.3181 49.3624C37.774 49.0015 38.6625 48.1514 39.3055 47.476C39.9485 46.8122 40.8253 45.7642 41.2579 45.1587C41.6904 44.5531 42.3568 43.4585 42.7426 42.7249C43.1284 41.9913 43.6194 40.9083 43.8415 40.3377C44.0637 39.7671 44.3793 38.7656 44.543 38.1252C44.7184 37.4847 44.9288 36.46 45.0223 35.8544C45.1158 35.2489 45.2211 34.2242 45.2678 33.5837C45.3029 32.9432 45.2795 31.7322 45.2094 30.9054C45.1392 30.0786 44.9755 28.8675 44.847 28.2271C44.7183 27.5866 44.4261 26.5153 44.204 25.8399C43.9818 25.1645 43.4908 23.9884 43.1284 23.2198C42.7543 22.4512 42.1931 21.4265 41.8892 20.9491C41.5735 20.4716 40.989 19.6565 40.5915 19.1441C40.194 18.6317 39.364 17.7351 38.7677 17.1412C38.1598 16.5473 37.3414 15.802 36.2074 14.8937L35.354 15.5691C34.8981 15.9418 34.372 16.3493 33.8693 16.6987L34.9565 17.5371C35.5411 17.9913 36.4646 18.8064 36.9907 19.3421C37.5168 19.8777 38.3118 20.8093 38.7677 21.4148C39.2237 22.0204 39.9134 23.1266 40.2875 23.8603C40.6733 24.5939 41.1643 25.7234 41.3865 26.3639C41.6086 27.0044 41.9009 28.0408 42.0412 28.6579C42.1698 29.2868 42.3334 30.4163 42.3919 31.1616C42.4503 31.9651 42.4503 33.1295 42.3919 33.9563C42.3334 34.7482 42.1814 35.901 42.0412 36.5182C41.9009 37.147 41.632 38.1368 41.4449 38.7074C41.2579 39.278 40.837 40.2795 40.5097 40.9199C40.194 41.5604 39.5978 42.5852 39.2003 43.1907C38.7911 43.7962 37.9143 44.8675 37.2479 45.5662C36.5815 46.2649 35.4943 47.2314 34.8396 47.7205C34.1966 48.2096 33.086 48.8967 32.3845 49.2693C31.6948 49.6303 30.6192 50.1077 30.0113 50.329C29.4034 50.5502 28.2694 50.8879 27.4978 51.0626C26.2001 51.3654 25.9078 51.3886 21.1029 51.4003L20.8808 51.1092C20.7522 50.9461 20.6469 50.7132 20.6469 50.5852C20.6586 50.4571 20.7405 50.2358 20.834 50.0844C21.0094 49.8399 21.0678 49.8282 23.0553 49.8282C24.5634 49.8282 25.4519 49.77 26.4105 49.5953C27.1354 49.4789 28.2343 49.2111 28.8422 49.0015C29.4501 48.8035 30.4322 48.4192 31.005 48.1397C31.5779 47.8719 32.5599 47.313 33.1678 46.9054C33.881 46.4396 34.7928 45.6594 35.693 44.7744C36.6166 43.8544 37.3648 42.9811 37.8441 42.2591C38.2416 41.6536 38.7794 40.7336 39.0366 40.2213C39.2938 39.7089 39.6796 38.7656 39.9017 38.1252C40.1122 37.4847 40.3694 36.5648 40.4746 36.0873C40.5915 35.575 40.6967 34.3988 40.7318 33.2343C40.7785 31.9301 40.7435 30.917 40.6499 30.2649C40.5681 29.7176 40.4746 29.1819 40.4278 29.0655C40.3694 28.8908 40.2291 28.9374 39.3172 29.4731C38.7443 29.8108 37.926 30.4047 37.5051 30.8006C37.0842 31.1965 36.6049 31.7671 36.4412 32.0815C36.2074 32.5357 36.1373 32.8734 36.1139 33.7001C36.0788 34.3057 36.149 35.3886 36.2659 36.262C36.4412 37.5313 36.4529 37.8806 36.3243 38.4163C36.2542 38.7656 36.0321 39.3712 35.8567 39.7555C35.6813 40.1397 35.2605 40.7918 34.9331 41.2111C34.6058 41.6303 34.0096 42.2475 33.6004 42.5852C33.2029 42.9229 32.4781 43.4003 31.9987 43.6332C31.309 43.9825 30.9699 44.0757 30.3036 44.1106C29.6606 44.1456 29.3917 44.099 29.0176 43.9127C28.7604 43.7962 28.3863 43.5051 28.1875 43.2955C28.0005 43.0742 27.7199 42.6084 27.5913 42.2591C27.451 41.9098 27.2873 41.1761 27.2172 40.6288C27.147 40.0815 27.0886 38.4047 27.0886 36.9025C27.0886 35.4003 27.0301 33.7234 26.96 33.1761C26.8898 32.6288 26.7612 32.0466 26.6677 31.8603C26.5625 31.6623 26.4105 31.5459 26.2352 31.5459C26.0949 31.5459 25.2648 31.6507 24.3997 31.7787C23.5346 31.9185 22.3187 32.0233 21.7108 32.0233C21.1029 32.0233 20.3313 31.9651 20.0156 31.8952C19.6883 31.8253 19.1739 31.6274 18.8582 31.4527C18.5426 31.278 18.075 30.9054 17.8295 30.6143C17.5723 30.3231 17.2449 29.8108 17.0812 29.4731C16.9293 29.147 16.7188 28.4833 16.6019 28.0175C16.4382 27.3188 16.4382 27.0393 16.5435 26.3057C16.6253 25.7118 16.824 25.1295 17.1397 24.4658C17.5021 23.7555 17.8528 23.278 18.5192 22.591C19.3843 21.706 19.4194 21.6594 19.1388 21.6012C18.9752 21.5662 18.6127 21.508 18.3205 21.4614C18.0282 21.4265 17.2683 21.2169 16.6253 21.0073C15.9823 20.7977 15.1172 20.46 14.6963 20.2504C14.2754 20.0408 13.6558 19.6914 12.7089 19.0859L12.3815 19.3071C12.2062 19.4236 11.5632 20.0408 10.9552 20.6696C10.3473 21.31 9.50559 22.3231 9.09641 22.9287C8.68723 23.5342 8.14945 24.4425 7.448 25.8399L7.72858 26.2242C7.88056 26.4221 8.44172 27.3886 8.96781 28.3435C9.4939 29.31 10.0667 30.23 10.2304 30.4163C10.4292 30.6143 10.8851 30.8472 11.4813 31.0335C11.9957 31.2082 12.6738 31.476 12.9895 31.6507C13.3752 31.8486 13.6792 32.1281 13.9013 32.4774C14.1585 32.885 14.2287 33.1412 14.2287 33.6186C14.2287 33.9447 14.1235 34.5502 13.9832 34.9578C13.8429 35.3537 13.3753 36.4367 12.9427 37.3683C12.4984 38.2999 12.0893 39.2664 12.0308 39.5226C11.949 39.9418 11.9957 40.1048 12.4867 41.1528C12.7907 41.7933 13.1297 42.6783 13.2467 43.1325C13.3753 43.6681 13.4571 44.425 13.4688 46.7074L13.9949 47.0801C14.2871 47.278 15.1523 47.7555 15.9239 48.1397C17.3267 48.8384 17.3267 48.8384 17.3501 49.2809C17.3735 49.5837 17.3151 49.7817 17.1514 49.9447C17.0228 50.0728 16.8007 50.1776 16.6604 50.1776C16.5084 50.1776 15.842 49.9098 15.1639 49.5837C14.4859 49.2576 13.4103 48.6405 12.779 48.2213C12.136 47.7904 11.0605 46.917 10.3941 46.2766C9.71602 45.6361 8.75737 44.5648 8.24298 43.8894C7.65844 43.1092 7.02713 42.0844 6.51274 41.0364C6.06849 40.1397 5.56578 38.9869 5.40211 38.4745C5.25013 37.9622 4.99293 37.0422 4.85264 36.4367C4.63051 35.4702 4.59544 34.9927 4.58375 32.6521C4.58375 30.2533 4.60713 29.8457 4.86433 28.7511C5.01631 28.0757 5.26182 27.1325 5.42549 26.655C5.58916 26.1776 5.90481 25.3624 6.13863 24.8501C6.37245 24.3377 6.85177 23.4294 7.21419 22.8355C7.56491 22.23 8.20791 21.3217 8.62878 20.7977C9.06134 20.2737 9.82124 19.4469 11.2475 18.0611L10.0317 16.9199C9.3653 16.2795 8.39496 15.2664 7.88056 14.6608C7.37786 14.0553 6.44259 12.7977 5.82298 11.8661C5.20336 10.9345 4.44346 9.6885 4.1395 9.09461C3.83554 8.51237 3.59003 7.8952 3.59003 7.73217C3.59003 7.5575 3.74201 7.30131 3.96414 7.08006C4.17457 6.87045 4.81757 6.33479 5.40211 5.89229C5.97496 5.43814 7.08559 4.65793 7.85718 4.15721C8.62878 3.64483 10.0434 2.84134 11.0137 2.37555C11.9724 1.89811 13.3986 1.30422 14.1702 1.05968C14.9418 0.803493 16.0525 0.512373 16.6253 0.407569C17.1982 0.302766 17.9697 0.174672 18.3205 0.116448C18.6712 0.0582242 19.2557 0.0116448 19.6065 0ZM16.0408 2.20087C15.5264 2.32897 14.7197 2.57351 14.2521 2.74818C13.7026 2.95779 13.422 3.12082 13.4688 3.22562C13.5038 3.29549 14.556 4.76274 15.8186 6.48617C17.0812 8.19796 18.1217 9.60699 18.1334 9.61863C18.1334 9.64192 19.5831 9.9214 21.325 10.2591C23.0786 10.5968 24.5049 10.8413 24.4815 10.7948C24.4698 10.7482 22.9968 8.71033 21.2081 6.27657C18.5426 2.63173 17.923 1.85153 17.7009 1.86317C17.5606 1.87482 17.3384 1.89811 17.2098 1.93304C17.0812 1.95633 16.5552 2.08442 16.0408 2.20087ZM8.03254 6.02038C7.35448 6.47453 6.67641 6.96361 6.51274 7.08006C6.27892 7.26638 6.25554 7.3246 6.39583 7.37118C6.48936 7.40611 8.51187 7.80204 10.8968 8.25619C13.27 8.71033 15.3276 9.1179 15.4562 9.15284C15.655 9.21106 15.6783 9.18777 15.5965 9.00146C15.5381 8.88501 14.6729 7.6623 13.6675 6.29985C12.6504 4.93741 11.7736 3.83115 11.7152 3.84279C11.645 3.84279 11.0722 4.14556 10.4292 4.5182C9.78617 4.87918 8.71061 5.55458 8.03254 6.02038ZM48.249 5.11208C47.8281 5.32169 47.0448 5.79913 46.4954 6.17176C45.9459 6.5444 45.3847 6.96361 45.2327 7.11499L44.9639 7.38282C46.7409 11.6681 47.2903 12.8792 47.3371 12.821C47.3722 12.7744 48.2022 10.8297 49.1842 8.48908C50.1663 6.14847 50.9729 4.16885 50.9846 4.09898C50.9963 4.01747 50.9496 3.9476 50.8794 3.95924C50.821 3.95924 50.365 4.13392 49.8857 4.34352C49.4064 4.55313 48.6698 4.89083 48.249 5.11208ZM50.669 9.22271C49.7805 11.3188 49.079 13.0771 49.0907 13.1354C49.1141 13.1936 50.2949 12.7627 51.7212 12.1805C53.1474 11.5866 54.3399 11.0859 54.3633 11.0509C54.3984 11.016 54.375 10.5735 54.3165 10.0611C54.2581 9.54876 54.0827 8.66376 53.919 8.08151C53.767 7.51092 53.4865 6.59098 53.2877 6.04367C53.089 5.49636 52.8552 4.94905 52.7616 4.82096C52.6097 4.59971 52.5863 4.59971 52.4343 4.99563C52.3408 5.21689 51.5458 7.11499 50.669 9.22271ZM42.6608 10.7598C42.5205 11.1441 42.3685 11.7962 42.2984 12.2154C42.2282 12.6346 42.1698 13.2868 42.1698 13.671C42.1698 14.0553 42.2516 14.8937 42.3451 15.5342C42.4386 16.1747 42.6491 17.1412 42.8011 17.6885C42.9647 18.2358 43.2921 19.1441 43.5376 19.7031C43.7831 20.262 44.0169 20.6812 44.052 20.6346C44.0987 20.5881 44.6365 19.3421 45.2561 17.8632L46.3901 15.1849C44.3442 10.2591 43.7129 8.82678 43.6779 8.83843C43.6428 8.83843 43.4557 9.1179 43.257 9.4556C43.0583 9.78166 42.7894 10.3755 42.6608 10.7598ZM6.23216 9.4556C6.33737 9.65357 6.84008 10.4338 7.34279 11.1674C7.84549 11.901 8.65216 12.9956 9.13148 13.5895C9.6225 14.1718 10.0784 14.6492 10.1369 14.6376C10.207 14.6143 11.4112 13.7642 12.8141 12.7394C14.7665 11.3304 15.3393 10.853 15.1873 10.7948C15.0821 10.7482 13.0713 10.3406 10.7214 9.88646C8.37158 9.43231 6.37245 9.03639 6.25554 9.00146C6.15032 8.96652 6.05679 8.96652 6.05679 9.00146C6.0451 9.03639 6.12694 9.246 6.23216 9.4556ZM11.2826 15.8836C12.1594 16.6521 12.8141 17.1645 13.2934 17.5022C13.7727 17.8515 14.5093 18.3173 14.9301 18.5502L15.69 18.9578C23.3826 13.3683 24.3529 12.5997 24.1893 12.5415C24.084 12.4949 22.6227 12.1921 20.9509 11.8661C19.2791 11.54 17.8295 11.2838 17.7359 11.2838C17.6424 11.2955 16.146 12.3319 14.4157 13.5895L11.2826 15.8836ZM48.1671 15.441C48.0853 15.4876 47.4657 16.8268 46.7876 18.4105C46.1213 20.0058 45.6069 21.2984 45.6536 21.2984C45.7004 21.2984 46.0862 21.1587 46.507 20.9956C46.9162 20.8326 47.6527 20.4949 48.1438 20.2504C48.6231 20.0058 49.4882 19.4935 50.0728 19.1092C50.669 18.7132 51.5107 18.0029 52.0602 17.4323C52.6837 16.7802 53.1552 16.1475 53.4748 15.5342C53.7437 15.0218 54.0476 14.2649 54.1528 13.8457C54.2464 13.4265 54.3282 13.0539 54.3282 12.9956C54.3282 12.9491 54.2931 12.9141 54.2464 12.9258C54.1996 12.9258 52.8435 13.4731 51.2418 14.1368C49.6285 14.8006 48.249 15.3828 48.1671 15.441ZM17.8295 19.6798C17.9347 19.7263 18.4608 19.8195 18.9752 19.901C19.5831 20.0058 20.4131 20.0291 21.3718 19.9825C22.1668 19.9476 23.2774 19.8079 23.8268 19.6798C24.3646 19.5633 25.2882 19.2955 25.8727 19.0859C26.4456 18.8879 27.3458 18.5386 27.8602 18.3057C28.3746 18.0728 29.2631 17.6186 29.8476 17.3042C30.4205 16.9782 31.496 16.3028 32.2442 15.802C32.9808 15.3013 33.7173 14.7889 33.881 14.6725L34.1732 14.4396C33.7173 14.3464 32.0806 14.0204 30.2568 13.671C28.4213 13.3217 26.8431 13.0306 26.7496 13.0306C26.6443 13.0422 24.5517 14.5211 22.0966 16.3261C18.7296 18.7948 17.6658 19.6332 17.8295 19.6798ZM29.1462 19.5051C28.3044 19.9127 26.9717 20.46 26.1884 20.7162C25.4051 20.9723 24.2477 21.2635 23.6164 21.3799C22.9734 21.4847 22.3772 21.6594 22.2486 21.7642C22.12 21.869 21.664 22.1834 21.2549 22.4629C20.834 22.7424 20.1442 23.313 19.7234 23.7322C19.209 24.2445 18.8232 24.7686 18.566 25.3159C18.2269 26.0146 18.1685 26.2475 18.1685 27.0044C18.1685 27.6565 18.2386 28.0291 18.4257 28.46C18.5777 28.7744 18.8349 29.2169 19.0102 29.4381C19.1739 29.6594 19.5831 29.9622 19.9104 30.1135C20.3897 30.3348 20.6937 30.3814 21.6056 30.3814C22.2135 30.3814 23.406 30.2766 24.2594 30.1485C25.1128 30.0204 26.0598 29.9156 26.3638 29.9156C26.7145 29.9156 27.0652 29.9971 27.299 30.1485C27.5095 30.2766 27.8134 30.5793 27.9654 30.8122C28.1291 31.0568 28.3395 31.5691 28.4447 31.9534C28.5967 32.5007 28.6552 33.5138 28.7253 36.6696C28.7954 39.4294 28.8656 40.8734 28.9825 41.2809C29.0643 41.607 29.2748 42.0146 29.4384 42.1892C29.6489 42.4221 29.8359 42.492 30.1983 42.492C30.4789 42.492 30.9466 42.3523 31.4259 42.1194C31.9169 41.8748 32.4664 41.4556 33.0041 40.9199C33.4484 40.4658 33.9862 39.7904 34.1849 39.4061C34.3837 39.0218 34.6175 38.4745 34.6876 38.1834C34.8045 37.7525 34.7928 37.4032 34.6292 36.262C34.5006 35.3654 34.4421 34.4105 34.4772 33.5837C34.5123 32.4541 34.559 32.2096 34.8747 31.5459C35.0734 31.1266 35.5294 30.4745 35.8801 30.0902C36.2425 29.706 36.9907 29.0771 37.5636 28.6812C38.1364 28.2969 38.908 27.8079 39.2821 27.6099C39.8667 27.2838 39.9485 27.2023 39.8783 26.9694C39.8433 26.8297 39.6095 26.2707 39.3756 25.7234C39.1418 25.1761 38.7326 24.361 38.4754 23.9185C38.2066 23.4643 37.6805 22.6841 37.2947 22.1718C36.9089 21.6594 36.0671 20.7394 35.4358 20.1339C34.7928 19.5284 33.8693 18.7482 33.3783 18.4105C32.8755 18.0844 32.4079 17.8049 32.3261 17.8166C32.2442 17.8166 31.8351 18.0378 31.4259 18.294C31.005 18.5502 29.9762 19.0975 29.1462 19.5051ZM6.32568 29.9156C6.18539 30.754 6.16201 31.5109 6.20878 33.0597C6.25554 34.6667 6.32568 35.3537 6.5595 36.3202C6.72317 36.9956 7.01544 37.9854 7.21419 38.5327C7.41293 39.0801 7.78704 39.9418 8.04424 40.4541C8.31312 40.9665 8.82752 41.8282 9.18994 42.3755C9.55235 42.9112 10.2538 43.7962 10.7565 44.3202C11.2592 44.8559 11.7152 45.2868 11.7853 45.2868C11.8554 45.2868 11.8671 45.0539 11.8321 44.6696C11.7853 44.3435 11.6801 43.7496 11.5982 43.3654C11.5047 42.9811 11.1891 42.1892 10.8851 41.6186C10.4525 40.7918 10.3473 40.4541 10.3473 39.9884C10.3473 39.6623 10.4409 39.115 10.5461 38.7656C10.663 38.4163 11.0488 37.5196 11.3995 36.786C11.7502 36.0524 12.1594 35.1208 12.3114 34.7132C12.4751 34.3173 12.6037 33.8282 12.6037 33.6419C12.6037 33.409 12.5101 33.246 12.3348 33.1295C12.1945 33.048 11.5749 32.7918 10.9669 32.5822C10.3473 32.361 9.69264 32.0815 9.50559 31.9534C9.30684 31.8137 8.96781 31.4643 8.74568 31.1732C8.51187 30.8705 8.05593 30.1135 7.72858 29.4847C7.38955 28.8559 7.03882 28.2387 6.9453 28.1106C6.78163 27.8894 6.76994 27.901 6.64134 28.3435C6.57119 28.5997 6.4309 29.31 6.32568 29.9156Z" fill="#149849"/>
</svg>
