<svg width="56" height="56" viewBox="0 0 56 56" fill="none" xmlns="http://www.w3.org/2000/svg">
<path fill-rule="evenodd" clip-rule="evenodd" d="M46.9127 0C47.0767 0 47.3064 0.109375 47.4485 0.251563C47.6782 0.48125 47.6891 0.579688 47.6891 1.82656C47.6891 3.16094 47.6891 3.17188 47.3939 3.39062C47.2189 3.52187 47.0002 3.62031 46.9018 3.60938C46.7924 3.60938 46.5737 3.48906 46.4097 3.34687C46.1254 3.09531 46.1035 3.01875 46.0707 2.00156C46.0488 1.41094 46.0598 0.820312 46.0926 0.678125C46.1254 0.546875 46.2675 0.339063 46.3988 0.21875C46.53 0.0984375 46.7596 0 46.9127 0V0ZM19.6946 7.66719C19.968 7.66719 20.7553 7.71094 21.4443 7.76562C22.1332 7.83125 23.1939 7.98438 23.7954 8.10469C24.3968 8.225 25.4575 8.50938 26.1465 8.73906C26.8354 8.96875 27.9508 9.42813 28.6069 9.76719C29.274 10.0953 30.2582 10.6641 30.794 11.0141C31.3408 11.375 32.0953 11.9328 32.489 12.25C32.8826 12.5781 33.5934 13.2344 34.0637 13.7266C34.5339 14.2078 35.2775 15.0719 35.704 15.6406C36.1414 16.2094 36.7428 17.1281 37.0381 17.6641C37.3443 18.2 37.7598 19.0203 37.9566 19.4688C38.1535 19.9172 38.4378 20.6391 38.58 21.0547C38.7221 21.4703 38.9627 22.3125 39.1158 22.9141C39.258 23.5156 39.3783 24.1281 39.3783 24.2812C39.3892 24.4344 39.2908 24.6859 39.1595 24.85C39.0064 25.0688 38.8424 25.1562 38.5909 25.1562C38.3831 25.1672 38.1535 25.0797 38.0441 24.9703C37.9348 24.8609 37.7817 24.5219 37.6942 24.2266C37.6067 23.9203 37.388 23.4828 37.224 23.2422C37.0271 22.9688 36.6772 22.6844 36.3163 22.4984C35.8571 22.2687 35.5618 22.2031 35.0588 22.2031C34.6979 22.2031 34.2277 22.2469 34.0199 22.3125C33.8121 22.3672 33.3966 22.575 33.0904 22.7719C32.7077 23.0344 32.4671 23.2969 32.2484 23.7344C31.9859 24.2484 31.9313 24.4672 31.9422 25.1781C31.9422 25.9875 31.9203 26.0422 31.6469 26.25C31.472 26.3813 31.2314 26.4797 31.1002 26.4688C30.958 26.4688 30.7284 26.3484 30.5753 26.1953C30.4222 26.0422 30.3019 25.8344 30.3019 25.725C30.3019 25.6266 30.1925 25.3203 30.0723 25.0469C29.952 24.7734 29.7223 24.4125 29.5583 24.2375C29.3943 24.0625 29.0225 23.8109 28.7163 23.6687C28.3226 23.4828 27.9727 23.4062 27.4587 23.4062C27.065 23.4062 26.5073 23.4828 26.2011 23.5922C25.8621 23.7016 25.4794 23.9531 25.1951 24.2484C24.867 24.5766 24.6702 24.8937 24.5608 25.2875C24.4733 25.6047 24.4077 26.1844 24.4187 26.5562C24.4515 27.1906 24.4296 27.2781 24.1781 27.4641C24.025 27.5844 23.7407 27.6828 23.5548 27.6719C23.3033 27.6719 23.1502 27.5953 23.0408 27.4203C22.9533 27.2891 22.844 27.0266 22.8002 26.8516C22.7565 26.6656 22.6362 26.3484 22.5378 26.1406C22.4284 25.9328 22.1441 25.5719 21.8926 25.3422C21.652 25.1234 21.2583 24.8609 21.0396 24.7734C20.81 24.675 20.5366 24.6094 20.4382 24.6094C20.3288 24.6094 20.2414 24.675 20.2414 24.7406C20.2414 24.8172 20.6132 27.125 21.0615 29.8594C21.5208 32.5938 21.9145 34.8687 21.9363 34.9234C21.9691 34.9672 29.5474 35 55.5626 35L55.7813 35.2516C55.9016 35.3828 56 35.6125 56 35.7656C56 35.9188 55.9016 36.1484 55.5626 36.5312H38.8862C25.6216 36.5312 22.2097 36.5641 22.2097 36.6734C22.2097 36.7391 22.4394 38.2266 23.2486 43.1047L24.7249 44.1766C25.5341 44.7562 26.5948 45.4891 27.076 45.7953C27.5571 46.1016 28.3007 46.5172 28.7163 46.7359C29.1427 46.9437 29.8973 47.2609 30.4112 47.4469C30.9252 47.6219 31.7344 47.8297 32.2156 47.9062C32.7733 48.0047 33.5278 48.0266 34.2933 47.9828C34.9932 47.9391 35.9555 47.7969 36.5897 47.6437C37.1912 47.4906 38.0551 47.2391 38.5034 47.0859C38.9518 46.9328 39.4767 46.8125 39.6516 46.8125C39.8485 46.8016 40.0672 46.9 40.1984 47.0422C40.3187 47.1625 40.4171 47.4141 40.4171 47.5781C40.4171 47.7422 40.3187 47.9938 40.1984 48.125C40.0781 48.2562 39.5423 48.4969 38.9955 48.6719C38.4597 48.8359 37.6177 49.0766 37.1365 49.1969C36.6553 49.3281 35.8461 49.4813 35.3322 49.5578C34.7635 49.6344 33.8887 49.6672 33.0904 49.6234C32.2047 49.5797 31.461 49.4703 30.794 49.2844C30.2582 49.1422 29.3943 48.8359 28.8803 48.6172C28.3663 48.3984 27.4806 47.9391 26.9119 47.6109C26.3433 47.2719 25.4794 46.725 24.9982 46.3859C24.5171 46.0578 23.3907 45.2375 22.4831 44.5812C21.5864 43.925 20.3288 43.0391 19.6946 42.6234C19.0603 42.2078 18.0324 41.6063 17.3982 41.2891C16.7639 40.9719 15.8563 40.5891 15.3751 40.4359C14.894 40.2828 14.1285 40.1078 13.6801 40.0312C13.1552 39.9437 12.2695 39.9109 11.2197 39.9547C9.94025 39.9984 9.34974 40.075 8.54052 40.2828C7.97188 40.4359 7.12986 40.7203 6.68151 40.9062C6.23316 41.0922 5.48955 41.4641 5.0412 41.7375C4.59285 42 3.84925 42.5359 3.41183 42.9078C2.96348 43.2797 2.30736 43.925 1.94649 44.3516C1.59656 44.7781 1.19195 45.15 1.03886 45.2047C0.885765 45.2484 0.656122 45.2266 0.481156 45.15C0.317126 45.0734 0.131224 44.8766 0.0656122 44.7125C-0.0218707 44.4828 0 44.3297 0.131224 44.0562C0.229643 43.8594 0.699863 43.2797 1.17008 42.7766C1.6403 42.2734 2.44952 41.5516 2.96348 41.1688C3.47745 40.7859 4.36321 40.2281 4.93185 39.9328C5.50049 39.6375 6.48467 39.2219 7.11892 39.0031C7.75317 38.7953 8.73736 38.5438 9.30599 38.4562C9.88557 38.3578 10.9682 38.2812 11.7665 38.2812C12.5538 38.2812 13.6036 38.3578 14.1176 38.4453C14.6315 38.5328 15.4407 38.7297 15.9219 38.8828C16.403 39.0469 17.2123 39.3641 17.7262 39.6047C18.2402 39.8453 19.1478 40.3375 19.7493 40.7094C20.3507 41.0813 20.9303 41.4422 21.0396 41.5187C21.1381 41.6063 21.2474 41.6391 21.2693 41.5953C21.2912 41.5406 21.1381 40.4031 20.5147 36.5859L0.503027 36.5312L0.251513 36.2797C0.120289 36.1484 0 35.9406 0 35.8203C0 35.7 0.0984183 35.4703 0.44835 35H10.2902C15.7032 35 20.1539 34.9672 20.1757 34.9125C20.1976 34.8688 19.8586 32.6266 19.4103 29.9141C18.9619 27.2125 18.5682 24.9703 18.5354 24.9375C18.5136 24.9047 18.3495 24.9813 18.1855 25.1125C18.0215 25.2328 17.7262 25.5828 17.5294 25.8781C17.3326 26.1734 17.1248 26.5891 17.0701 26.7969C17.0045 27.0047 16.9608 27.4641 16.9608 27.8141C16.9608 28.2953 16.9061 28.4922 16.742 28.6562C16.6218 28.7766 16.4468 28.875 16.3593 28.875C16.2718 28.875 16.0641 28.8094 15.9 28.7219C15.7251 28.6453 15.5392 28.4594 15.4626 28.3172C15.3861 28.175 15.222 27.7922 15.0799 27.4641C14.9268 27.1031 14.6534 26.7203 14.3909 26.5016C14.1504 26.2938 13.6801 26.0531 13.3521 25.9547C12.9511 25.838 12.5611 25.8052 12.182 25.8562C11.8649 25.8891 11.3728 26.0422 11.0885 26.1844C10.7932 26.3266 10.4105 26.6109 10.2136 26.8188C10.0168 27.0156 9.77622 27.3766 9.6778 27.6172C9.55751 27.9016 9.4919 28.35 9.50283 28.875C9.50283 29.5969 9.47003 29.7281 9.24038 29.9469C9.09822 30.0781 8.87952 30.1875 8.73736 30.1875C8.5952 30.1875 8.37649 30.1109 8.24527 30.0234C8.09217 29.925 7.92814 29.6406 7.84066 29.2906C7.75317 28.9734 7.5126 28.4922 7.30482 28.2188C7.09705 27.9453 6.67057 27.5844 6.34251 27.3984C5.82855 27.1141 5.64265 27.0703 4.93185 27.0703C4.30853 27.0703 4.00234 27.1359 3.67428 27.3109C3.4337 27.4312 3.0291 27.7594 2.77758 28.0437C2.47139 28.3719 2.25269 28.7437 2.14333 29.1266C2.05585 29.4328 1.99024 29.9797 2.00117 30.3297C2.03398 30.8984 2.00117 30.9969 1.76059 31.1828C1.6075 31.3031 1.34505 31.4016 1.15915 31.4016C0.984183 31.4016 0.721734 31.3141 0.579574 31.2047C0.404609 31.0625 0.295255 30.8109 0.207772 30.2969C0.14216 29.9031 0.0765475 28.7 0.0765475 27.6172C0.0765475 26.1844 0.120289 25.3203 0.273384 24.4453C0.382738 23.7781 0.61238 22.75 0.776411 22.1484C0.951377 21.5469 1.29037 20.5625 1.54189 19.9609C1.78246 19.3594 2.26362 18.375 2.60262 17.7734C2.95255 17.1719 3.59773 16.1875 4.05702 15.5859C4.50537 14.9844 5.32552 14.0547 5.86136 13.5078C6.40812 12.9719 7.33763 12.1516 7.93907 11.7031C8.54052 11.2437 9.48096 10.6203 10.0168 10.325C10.5636 10.0188 11.3946 9.59219 11.8758 9.38438C12.357 9.16563 13.2209 8.84844 13.7895 8.6625C14.3581 8.47656 15.3423 8.225 15.9766 8.09375C16.6108 7.9625 17.595 7.82031 18.1636 7.77656C18.7323 7.72187 19.4212 7.67812 19.6946 7.66719ZM16.4905 10.5547C16.3921 10.8609 16.2609 11.3969 16.1953 11.7578C16.1297 12.1187 16.0312 13.2563 15.9766 14.2734C15.9 15.5531 15.9 16.8328 15.9766 18.375C16.0422 19.6109 16.1734 21.4266 16.2609 22.4219C16.3593 23.4172 16.4577 24.2375 16.4796 24.2594C16.5015 24.2703 16.8405 24.0625 17.2341 23.7891C17.6278 23.5156 18.2293 23.2203 18.5792 23.1219C18.9182 23.0234 19.5524 22.9469 19.968 22.9469C20.4382 22.9469 21.0068 23.0344 21.4443 23.1766C21.8379 23.3078 22.166 23.3953 22.1769 23.3844C22.1879 23.3625 22.002 22.5094 21.7614 21.4922C21.5317 20.475 21.1818 19.0969 21.0068 18.4297C20.8209 17.7625 20.4491 16.5375 20.1648 15.6953C19.8914 14.8531 19.4431 13.65 19.1806 13.0156C18.9182 12.3813 18.5245 11.55 18.2949 11.1562C18.0762 10.7625 17.7262 10.2594 17.5075 10.0297C17.2997 9.8 17.0701 9.61406 16.9936 9.625C16.917 9.625 16.8186 9.7125 16.7639 9.82188C16.7092 9.92031 16.5889 10.2594 16.4905 10.5547ZM20.0336 10.9594C20.3726 11.6375 20.9084 12.8844 21.2255 13.7266C21.5427 14.5688 22.0566 16.1656 22.3738 17.2812C22.6909 18.3969 23.1283 20.0922 23.347 21.0547C23.5657 22.0172 23.7735 22.9141 23.7954 23.0562C23.85 23.2859 23.8719 23.275 24.3421 22.8594C24.6155 22.6187 25.031 22.3234 25.2716 22.2031C25.5122 22.0828 26.0152 21.9078 26.398 21.8094C26.8573 21.6891 27.2947 21.6562 27.7321 21.7C28.093 21.7328 28.6069 21.8422 28.8803 21.9297C29.1537 22.0172 29.3833 22.0938 29.4052 22.0938C29.4161 22.0938 29.263 21.6125 29.0662 21.0328C28.8584 20.4422 28.4648 19.4469 28.1914 18.8125C27.918 18.1781 27.4587 17.2375 27.1634 16.7125C26.8791 16.1875 26.3214 15.3016 25.9277 14.7438C25.5341 14.1969 24.8233 13.3219 24.3421 12.8187C23.861 12.3047 23.1502 11.6484 22.7565 11.3531C22.3628 11.0578 21.6083 10.5984 21.0615 10.3359C20.5257 10.0625 19.9352 9.81094 19.7493 9.78906L19.4212 9.72344L20.0336 10.9594ZM23.9594 10.2266C24.2109 10.4125 24.8889 11.0469 25.4685 11.6594C26.048 12.2609 26.8244 13.1687 27.1853 13.6719C27.5462 14.1859 28.1476 15.1375 28.5194 15.8047C28.9022 16.4719 29.4271 17.5109 29.7005 18.1344C29.9629 18.7469 30.3894 19.8516 30.63 20.5953C30.8705 21.3281 31.0892 22.0063 31.122 22.0938C31.1549 22.2141 31.3079 22.1266 31.6907 21.7547C31.975 21.4812 32.4234 21.1531 32.6749 21.0219C32.9264 20.8906 33.4185 20.7047 33.7684 20.6172C34.1183 20.5297 34.6214 20.4531 34.8947 20.4531C35.1572 20.4531 35.6821 20.5297 36.043 20.6172C36.4038 20.7047 36.6991 20.7703 36.71 20.7594C36.721 20.7375 36.5241 20.2891 36.2726 19.7422C36.0102 19.2062 35.5837 18.4188 35.3322 17.9922C35.0697 17.5766 34.5558 16.8328 34.184 16.3516C33.8012 15.8703 32.992 14.9844 32.3577 14.3828C31.6907 13.7375 30.7065 12.9391 29.9738 12.4469C29.274 11.9875 28.2242 11.375 27.6227 11.0906C27.0213 10.8172 26.0371 10.4234 25.4357 10.2266C24.8342 10.0297 24.1562 9.84375 23.9375 9.8C23.7079 9.75625 23.522 9.76719 23.522 9.81094C23.511 9.86562 23.7188 10.0516 23.9594 10.2266ZM12.5866 12.2609C12.2476 12.6656 11.7555 13.3766 11.4931 13.8469C11.2197 14.3281 10.8041 15.1594 10.5745 15.6953C10.3449 16.2422 10.0933 16.7453 10.0277 16.8219C9.95118 16.9094 9.73247 16.9531 9.48096 16.9312C9.17477 16.9094 8.98887 16.8219 8.83578 16.625C8.628 16.3625 8.628 16.3406 8.8139 15.75C8.92326 15.4219 9.16384 14.8094 9.34974 14.3828C9.54657 13.9672 9.92931 13.2344 10.2136 12.775C10.498 12.3047 10.7276 11.9 10.7276 11.8672C10.7276 11.8344 10.5417 11.9219 10.312 12.0531C10.0824 12.1734 9.45909 12.6219 8.92326 13.0266C8.37649 13.4312 7.56727 14.1312 7.11892 14.5687C6.68151 15.0062 6.01445 15.7391 5.65358 16.1875C5.29272 16.6359 4.78969 17.3469 4.52724 17.7516C4.26479 18.1562 3.82738 18.9438 3.54306 19.5016C3.26967 20.0594 2.85413 21.0766 2.62449 21.7656C2.39484 22.4547 2.1324 23.3953 2.04491 23.8438C1.94649 24.2922 1.82621 25.0797 1.77153 25.5938C1.71685 26.1078 1.68405 26.5453 1.70592 26.5781C1.72779 26.6109 1.93556 26.5016 2.1652 26.3375C2.39484 26.1734 2.876 25.9109 3.23687 25.7359C3.81644 25.4625 4.01328 25.4297 4.98653 25.4297C5.94884 25.4297 6.15661 25.4734 6.73618 25.7359C7.09705 25.9 7.39231 26.0422 7.39231 26.0312C7.39231 26.0312 7.42511 24.8938 7.46885 23.4937C7.5126 22.0938 7.58914 20.6719 7.65476 20.3438C7.7313 19.9391 7.84066 19.6766 8.01562 19.5453C8.14685 19.4359 8.38742 19.3484 8.54052 19.3594C8.68268 19.3594 8.92326 19.4688 9.06542 19.6C9.306 19.8297 9.32787 19.9062 9.26225 20.5078C9.21851 20.8687 9.1529 22.1484 9.10916 23.3406L9.03261 25.5281C10.1699 24.7297 10.7823 24.4234 11.1322 24.325C11.5806 24.1937 12.0289 24.1609 12.696 24.1938C13.363 24.2266 13.7786 24.3141 14.1941 24.5109C14.5112 24.6531 14.7955 24.7516 14.8284 24.7188C14.8502 24.6859 14.8284 24.325 14.7737 23.8984C14.719 23.4828 14.5878 22.2031 14.4894 21.0547C14.38 19.8188 14.3035 17.8719 14.3035 16.2422C14.3035 14.35 14.3581 13.1031 14.4784 12.1953C14.5768 11.4734 14.6643 10.7953 14.6862 10.6969C14.7081 10.5875 14.6643 10.5 14.6096 10.5C14.544 10.5 14.1941 10.7406 13.8332 11.025C13.4833 11.3094 12.9147 11.8672 12.5866 12.2609ZM54.1957 8.3125C55.5517 8.3125 55.5626 8.3125 55.7813 8.61875C55.9016 8.78281 56 9.00156 56 9.11094C56 9.20938 55.9563 9.38437 55.9125 9.48281C55.8688 9.58125 55.6938 9.72344 55.5298 9.81094C55.3329 9.89844 54.8409 9.95312 54.141 9.95312C53.0693 9.95312 53.0365 9.95312 52.7194 9.625C52.5335 9.45 52.3804 9.20937 52.3804 9.1C52.3695 8.97969 52.4679 8.76094 52.5991 8.60781C52.8287 8.32344 52.8616 8.3125 54.1957 8.3125ZM48.0172 44.6469C48.5202 44.6359 49.406 44.7016 49.9856 44.7891C50.5542 44.8766 51.3853 45.0734 51.8446 45.2266C52.2929 45.3797 52.9272 45.6422 53.2662 45.8062C53.5942 45.9703 54.2285 46.3531 54.6659 46.6594C55.1142 46.9547 55.5954 47.3375 55.7376 47.5016C55.8797 47.6656 56 47.8734 56 47.9609C56 48.0484 55.9453 48.2344 55.8906 48.3766C55.825 48.5078 55.6501 48.6828 55.5079 48.7594C55.3548 48.8359 55.1142 48.8578 54.983 48.8141C54.8518 48.7812 54.4144 48.5078 54.0316 48.2125C53.638 47.9172 52.9272 47.4797 52.446 47.25C51.9649 47.0094 51.1228 46.7141 50.587 46.5828C49.8434 46.3969 49.2529 46.3312 48.2359 46.3312C47.3173 46.3203 46.4644 46.3969 44.4195 46.7578L44.1351 46.4844C43.9602 46.3203 43.8508 46.0906 43.8508 45.9156C43.8508 45.7516 43.9711 45.5 44.1023 45.3578C44.2882 45.1719 44.6054 45.0625 45.4474 44.9203C46.0488 44.8219 46.6612 44.7125 46.8143 44.6906C46.9565 44.6688 47.5032 44.6469 48.0172 44.6469ZM39.7172 54.3594C39.936 54.3594 40.1 54.4578 40.2531 54.6656C40.3734 54.8297 40.4718 55.0594 40.4718 55.1797C40.4718 55.3 40.3734 55.5406 40.2531 55.7047C40.1 55.9125 39.936 56 39.7063 56C39.5204 56 39.2798 55.9016 39.1595 55.7812C39.0393 55.6609 38.9299 55.475 38.919 55.3766C38.919 55.2672 38.919 55.0812 38.9299 54.9609C38.9408 54.8406 39.0502 54.6547 39.1705 54.5562C39.3017 54.4469 39.5423 54.3594 39.7172 54.3594ZM41.1607 2.45C41.3904 2.49375 41.7731 2.78906 42.3527 3.36875C43.0963 4.1125 43.1947 4.25469 43.1947 4.62656C43.1947 4.94375 43.14 5.075 42.8994 5.26094C42.7354 5.38125 42.5058 5.47969 42.3855 5.46875C42.2542 5.46875 41.7403 5.04219 41.2045 4.50625C40.439 3.75156 40.2421 3.48906 40.2531 3.24844C40.2531 3.07344 40.3734 2.82187 40.5374 2.66875C40.767 2.43906 40.8873 2.39531 41.1607 2.45ZM52.8616 2.45C53.0475 2.49375 53.2662 2.58125 53.3427 2.65781C53.4083 2.73438 53.5067 2.94219 53.5614 3.13906C53.638 3.46719 53.5942 3.53281 52.7194 4.42969C52.2054 4.94375 51.6915 5.39219 51.5712 5.425C51.4509 5.45781 51.2103 5.425 51.0463 5.34844C50.8713 5.26094 50.6854 5.075 50.6307 4.92188C50.5542 4.74687 50.5542 4.55 50.6198 4.375C50.6745 4.22188 51.1228 3.71875 51.6149 3.2375C52.446 2.45 52.5335 2.38437 52.8616 2.45ZM47.033 4.62656C47.9844 4.64844 48.1484 4.68125 48.892 5.05312C49.4278 5.31563 49.8653 5.62188 50.1824 5.98281C50.4558 6.26719 50.8166 6.825 51.0025 7.21875C51.3197 7.88594 51.3525 8.01719 51.3525 9.13281C51.3525 10.2156 51.3197 10.4016 51.0572 10.9375C50.8932 11.2656 50.4995 11.8234 50.1824 12.1844C49.8106 12.5891 49.3622 12.9391 48.9467 13.1359C48.5858 13.3109 47.9625 13.5078 47.5798 13.5734C47.0658 13.65 46.6721 13.65 46.2129 13.5734C45.852 13.5078 45.2943 13.3328 44.9772 13.1797C44.66 13.0266 44.1242 12.6547 43.7961 12.3375C43.4243 11.9875 43.0525 11.4953 42.8666 11.1016C42.6807 10.7406 42.4839 10.1281 42.4292 9.73438C42.3417 9.17656 42.3527 8.85938 42.4839 8.20312C42.5823 7.75469 42.7901 7.16406 42.9541 6.89062C43.1181 6.61719 43.4025 6.23438 43.5774 6.02656C43.7633 5.82969 44.1351 5.5125 44.4085 5.32656C44.671 5.14062 45.1412 4.9 45.4474 4.80156C45.852 4.64844 46.2457 4.60469 47.033 4.62656ZM44.7584 7.16406C44.6054 7.35 44.3866 7.68906 44.2664 7.92969C44.1133 8.23594 44.0367 8.59688 44.0367 9.07812C44.0367 9.59219 44.0914 9.93125 44.2664 10.2812C44.3866 10.5547 44.7147 10.9703 44.9662 11.2C45.2287 11.4406 45.6114 11.7031 45.8301 11.8016C46.0379 11.8891 46.53 11.9656 46.9236 11.9656C47.4704 11.9656 47.7547 11.9 48.1812 11.6813C48.4765 11.5281 48.8701 11.2438 49.0451 11.0359C49.2201 10.8281 49.4497 10.4672 49.5591 10.2266C49.6794 9.95312 49.7559 9.52656 49.7559 9.07812C49.7668 8.52031 49.7012 8.24687 49.4607 7.77656C49.2966 7.44844 49.0123 7.06563 48.8373 6.9125C48.6514 6.75938 48.3124 6.55156 48.0719 6.44219C47.7875 6.31094 47.372 6.23438 46.9236 6.23438C46.355 6.23438 46.0816 6.3 45.6114 6.54063C45.2943 6.70469 44.9006 6.98906 44.7584 7.16406ZM39.5641 8.3125C40.6358 8.30156 40.8873 8.33437 41.106 8.49844C41.2591 8.61875 41.3575 8.82656 41.3794 9.04531C41.3904 9.29688 41.3138 9.48281 41.1498 9.64687C40.9201 9.8875 40.7998 9.89844 39.5751 9.89844C38.3066 9.89844 38.2519 9.8875 38.0441 9.625C37.9238 9.47188 37.8364 9.22031 37.8364 9.05625C37.8364 8.89219 37.9457 8.65156 38.066 8.53125C38.2519 8.33438 38.4269 8.3125 39.5641 8.3125ZM42.4292 12.7969C42.6479 12.8078 42.8994 12.8844 43.0088 12.9938C43.1291 13.1031 43.2056 13.3438 43.2056 13.5625C43.2056 13.9016 43.0853 14.0656 42.298 14.8422C41.62 15.5203 41.3247 15.7391 41.0951 15.75C40.9201 15.75 40.6796 15.6406 40.5265 15.4766C40.3734 15.3234 40.2421 15.0719 40.2312 14.9187C40.2093 14.6891 40.4062 14.4375 41.117 13.7156C41.9262 12.9062 42.0793 12.7969 42.4292 12.7969ZM51.3853 12.7969C51.7352 12.8078 51.8883 12.9062 52.6866 13.7047C53.3755 14.3938 53.5833 14.6781 53.5833 14.9078C53.5833 15.0828 53.4739 15.3234 53.3208 15.4766C53.1677 15.6406 52.9272 15.75 52.7522 15.75C52.5007 15.7609 52.2382 15.5531 51.4837 14.7984C50.9479 14.2516 50.5323 13.7375 50.5214 13.6062C50.5104 13.475 50.6089 13.2453 50.7401 13.0922C50.926 12.8734 51.0791 12.7969 51.3853 12.7969ZM46.9346 14.6562C47.2517 14.6562 47.3939 14.7219 47.5251 14.9078C47.6454 15.0938 47.6891 15.4656 47.6891 16.4391C47.6891 17.5766 47.6563 17.7406 47.4704 17.9375C47.3501 18.0578 47.1096 18.1562 46.9455 18.1672C46.7815 18.1672 46.519 18.0688 46.3769 17.9484C46.1035 17.7516 46.1035 17.6969 46.1035 16.4281C46.1035 15.2906 46.1254 15.0828 46.3113 14.8859C46.4534 14.7328 46.6503 14.6562 46.9346 14.6562ZM51.0791 38.9375L51.2431 39.1891C51.3306 39.3203 51.4072 39.5828 51.4072 39.7578C51.4072 39.9547 51.3197 40.1734 51.1775 40.3047C50.9479 40.5234 50.7948 40.5234 36.207 40.5234L35.9555 40.2719C35.8024 40.1188 35.7149 39.9109 35.7258 39.6922C35.7258 39.5062 35.8243 39.2656 35.9336 39.1453C36.1195 38.9484 36.4038 38.9375 51.0791 38.9375ZM31.5923 42.2188H38.3941L38.6674 42.4922C38.8205 42.6562 38.9299 42.8859 38.9299 43.0719C38.9299 43.2359 38.8205 43.4766 38.6893 43.6187C38.4487 43.8703 38.4378 43.8703 35.0041 43.8703C31.8438 43.8703 31.5376 43.8484 31.3079 43.6734C31.1767 43.5641 31.0455 43.3453 31.0127 43.1812C30.969 42.9406 31.0236 42.7984 31.2751 42.5469L31.5923 42.2188ZM17.934 44.9531C18.1199 44.9531 18.3605 45.0516 18.4808 45.1719C18.6229 45.3141 18.6995 45.5438 18.6995 45.7734C18.6995 46.0687 18.6339 46.2109 18.4042 46.3859C18.2402 46.5063 18.0324 46.6047 17.934 46.6047C17.8465 46.6047 17.6387 46.5063 17.4747 46.3859C17.2451 46.2109 17.1685 46.0687 17.1685 45.7734C17.1685 45.5438 17.256 45.3141 17.3872 45.1719C17.5075 45.0516 17.759 44.9531 17.934 44.9531ZM3.76177 46.5938C3.9586 46.5938 4.17731 46.6703 4.27573 46.7797C4.37415 46.8891 4.4835 47.0641 4.52724 47.1734C4.56005 47.2719 4.54911 47.5125 4.4835 47.6875C4.4106 47.9062 4.26479 48.0521 4.04608 48.125C3.82738 48.1979 3.6269 48.1979 3.44464 48.125C3.30248 48.0703 3.11658 47.9062 3.05097 47.775C2.98535 47.6328 2.96348 47.3922 2.99629 47.2281C3.04003 47.0641 3.13845 46.8453 3.23687 46.7578C3.33529 46.6703 3.56493 46.5938 3.76177 46.5938ZM49.4607 49.7766C49.5591 49.7766 49.7778 49.8859 49.9199 50.0391C50.073 50.1922 50.1933 50.4219 50.2043 50.5641C50.2043 50.6953 50.1058 50.9469 49.9856 51.1109C49.8215 51.3297 49.6575 51.4062 49.406 51.4062C49.1982 51.4172 48.9686 51.3297 48.8701 51.2203C48.7717 51.1109 48.6624 50.9141 48.6296 50.7828C48.5858 50.6406 48.6296 50.4 48.728 50.2141C48.8264 50.0391 48.9795 49.875 49.0889 49.8422C49.1873 49.8203 49.3513 49.7875 49.4607 49.7766ZM15.1127 51.1875C15.4298 51.1875 15.572 51.2531 15.6922 51.4391C15.7907 51.5703 15.8563 51.8 15.8563 51.9531C15.8563 52.1063 15.7907 52.3359 15.6922 52.4781C15.572 52.6531 15.4298 52.7188 15.1236 52.7188C14.883 52.7188 14.6315 52.6313 14.5112 52.5219C14.4128 52.4234 14.3144 52.1719 14.3035 51.9641C14.2925 51.7344 14.3691 51.5156 14.4894 51.3844C14.6096 51.2641 14.8502 51.1875 15.1127 51.1875Z" fill="#149849"/>
</svg>
