<svg width="28" height="28" viewBox="0 0 28 28" fill="none" xmlns="http://www.w3.org/2000/svg">
<circle cx="14" cy="14" r="14" fill="#149849"/>
<path fill-rule="evenodd" clip-rule="evenodd" d="M9.99477 8.00235C10.112 8 10.1753 8.01411 10.2714 8.05881C10.337 8.09175 10.4378 8.16232 10.4917 8.21878C10.5456 8.27288 10.6113 8.36463 10.637 8.42344C10.6769 8.51519 10.6839 8.58106 10.6863 9.35266H16.5932V8.92922C16.5956 8.53871 16.6003 8.49872 16.6471 8.40462C16.6753 8.35052 16.7339 8.26818 16.7737 8.22113C16.8159 8.17408 16.9144 8.10586 16.9917 8.06822C17.0995 8.01411 17.1652 8 17.273 8C17.3504 8 17.423 8.00941 17.4371 8.02117C17.4511 8.03293 17.5027 8.05411 17.5543 8.07293C17.6059 8.08939 17.6949 8.14585 17.7512 8.19761C17.8074 8.25171 17.8731 8.33405 17.8965 8.38345C17.9223 8.4305 17.9504 8.53636 17.9645 8.6187C17.9762 8.69868 17.9879 8.89864 17.9879 9.36442H18.5739C19.1295 9.36442 19.1623 9.36678 19.2068 9.41147C19.2537 9.45852 19.2537 9.4891 19.2537 12.6814L19.1951 12.7402C19.1646 12.7731 19.1154 12.799 19.0849 12.799C19.0545 12.799 19.0099 12.7849 18.9841 12.7661C18.9396 12.7355 18.9373 12.6979 18.9138 11.611L8.35395 11.5993V12.9637C8.35395 13.8811 8.34457 14.3493 8.32816 14.394C8.3141 14.4293 8.29066 14.4645 8.2766 14.474C8.26019 14.4834 8.21565 14.4928 8.17815 14.4928C8.1383 14.4928 8.08673 14.4692 8 14.3869V9.44676L8.05157 9.39971C8.09845 9.35501 8.12892 9.35266 9.29156 9.36442L9.28922 8.9598C9.28688 8.58106 9.29156 8.54342 9.34313 8.42579C9.37595 8.34581 9.44158 8.25642 9.51425 8.19055C9.57754 8.12938 9.67833 8.06352 9.73693 8.04234C9.79553 8.02117 9.91039 8.00235 9.99477 8.00235ZM9.69474 8.53401C9.65958 8.59047 9.65489 8.67515 9.65489 9.38795C9.65489 10.0937 9.65958 10.1831 9.69474 10.2537C9.71818 10.2936 9.77209 10.3501 9.81194 10.376C9.85648 10.4019 9.93148 10.423 9.98305 10.423C10.0346 10.423 10.1143 10.4042 10.1589 10.3783C10.2034 10.3548 10.2596 10.2983 10.2831 10.256C10.3183 10.1854 10.3229 10.0937 10.3229 9.40677C10.3229 8.77396 10.3159 8.62105 10.2878 8.55283C10.269 8.50813 10.2175 8.44932 10.1753 8.42344C10.1307 8.39521 10.0581 8.37639 9.99477 8.37639C9.93148 8.37639 9.85882 8.39521 9.81194 8.42344C9.77209 8.44932 9.71818 8.49872 9.69474 8.53401ZM16.9917 8.55283C16.9636 8.62105 16.9566 8.77396 16.9566 9.40677C16.9566 10.0913 16.9612 10.1854 16.9987 10.2584C17.0222 10.3054 17.0738 10.3572 17.1206 10.3807C17.1652 10.4042 17.2378 10.423 17.2777 10.423C17.3199 10.423 17.3925 10.4066 17.4371 10.3877C17.4816 10.3689 17.5402 10.3172 17.566 10.2772C17.6105 10.2042 17.6129 10.1572 17.6129 9.40677C17.6129 8.74573 17.6059 8.59988 17.5777 8.54106C17.559 8.50343 17.5074 8.44932 17.4652 8.42344C17.4207 8.39521 17.348 8.37639 17.2847 8.37639C17.2214 8.37639 17.1488 8.39521 17.1019 8.42344C17.062 8.44932 17.0105 8.50813 16.9917 8.55283ZM8.37739 11.2464H18.9021V9.71729H17.9997C17.9739 10.1337 17.9504 10.2701 17.92 10.3525C17.8918 10.4277 17.8356 10.5171 17.784 10.5689C17.7348 10.6159 17.648 10.6794 17.5894 10.71C17.5027 10.7547 17.4488 10.7641 17.2847 10.7641C17.123 10.7641 17.0667 10.7524 16.98 10.7077C16.9214 10.6771 16.844 10.6253 16.8089 10.5901C16.7714 10.5571 16.7175 10.4818 16.687 10.423C16.6565 10.3642 16.6214 10.2537 16.6073 10.176C16.5932 10.0984 16.5815 9.9643 16.5815 9.87726V9.71729H10.7097C10.6839 10.1219 10.6628 10.2442 10.6253 10.3407C10.5925 10.4254 10.5339 10.5195 10.4776 10.5783C10.4214 10.6347 10.3276 10.6936 10.2456 10.7241C10.1706 10.7524 10.0581 10.7759 9.98774 10.7759C9.92211 10.7759 9.81897 10.7618 9.76037 10.7406C9.70177 10.7218 9.60332 10.6606 9.54003 10.6065C9.47205 10.5477 9.40173 10.456 9.36892 10.3877C9.34079 10.3242 9.315 10.2348 9.315 10.1948C9.315 10.1525 9.30328 10.1125 9.29156 10.1054C9.2775 10.0984 9.26812 10.009 9.26812 9.90549V9.71729H8.37739V11.2464ZM14.6899 12.4697C15.2853 12.4697 15.3181 12.472 15.3626 12.5167C15.4071 12.5614 15.4095 12.5967 15.4095 13.206C15.4118 13.7612 15.4071 13.8506 15.3743 13.8811C15.3532 13.9 15.3462 13.9258 15.3556 13.9352C15.365 13.947 15.4212 13.9305 15.4798 13.9023C15.5384 13.8741 15.6861 13.8176 16.0307 13.7L16.0354 13.126C16.0424 12.5614 16.0424 12.552 16.094 12.5097C16.1432 12.472 16.2065 12.4673 16.769 12.4673C17.2707 12.4697 17.3996 12.4744 17.4371 12.5026C17.4816 12.5332 17.484 12.5708 17.5074 13.6765L17.777 13.7635C17.9246 13.8129 18.1262 13.8905 18.2223 13.9399C18.3184 13.9893 18.4567 14.0646 18.5271 14.1093C18.5974 14.1564 18.7076 14.234 18.7732 14.2834C18.8365 14.3328 18.8974 14.3752 18.9068 14.3752C18.9185 14.3752 18.9255 14.1281 18.9255 13.827C18.9255 13.4224 18.9326 13.2695 18.9537 13.2413C18.9701 13.2177 19.0146 13.1919 19.0545 13.1848C19.1107 13.1707 19.1365 13.1801 19.2537 13.293V14.0293C19.2514 14.6857 19.2561 14.768 19.2912 14.7986C19.3123 14.8174 19.3873 14.9233 19.46 15.0338C19.5326 15.1444 19.6358 15.3302 19.6897 15.4455C19.7413 15.5608 19.8092 15.7255 19.835 15.8101C19.8632 15.8948 19.9007 16.0525 19.9218 16.163C19.9429 16.2736 19.971 16.4006 19.985 16.4453C19.9991 16.4947 20.0038 16.6758 19.9968 16.904C19.9897 17.1181 19.9663 17.3581 19.9452 17.4569C19.9241 17.5533 19.8796 17.7133 19.8468 17.8097C19.8139 17.9062 19.746 18.0709 19.6967 18.1744C19.6475 18.2779 19.5561 18.4402 19.4951 18.5319C19.4342 18.626 19.3193 18.7789 19.242 18.8707C19.1646 18.9648 19.017 19.113 18.9138 19.2024C18.8107 19.2941 18.6513 19.4165 18.5622 19.4753C18.4708 19.5364 18.3091 19.6282 18.1989 19.6823C18.0887 19.7364 17.92 19.807 17.8238 19.8399C17.7277 19.8728 17.5683 19.9175 17.4722 19.9387C17.3761 19.9599 17.1206 19.9858 16.9073 19.9928C16.6331 20.0046 16.5088 20.0022 16.4854 19.9834C16.4667 19.9693 16.394 19.9505 16.3237 19.9411C16.2533 19.9316 16.1104 19.9034 16.0072 19.8752C15.9041 19.8493 15.74 19.7976 15.6439 19.7576C15.5478 19.7199 15.379 19.6399 15.2689 19.5788C15.1587 19.52 14.9899 19.4094 14.8938 19.3365C14.7977 19.2612 14.643 19.1248 14.5516 19.0283C14.4602 18.9342 14.3336 18.786 14.2703 18.7013C14.207 18.6143 14.1156 18.4802 13.9796 18.2567L11.0402 18.2496C8.1383 18.2449 8.10079 18.2449 8 18.1508L8.00234 16.5747C8.00234 15.3749 8.01172 14.9891 8.03282 14.9586C8.04922 14.9374 8.08673 14.9092 8.11955 14.8974C8.15236 14.8856 8.20393 14.8833 8.23675 14.895C8.26956 14.9068 8.30472 14.9327 8.31879 14.9562C8.33285 14.9821 8.34692 15.5514 8.36567 17.9156H11.0965C13.5108 17.9156 13.8273 17.9109 13.8179 17.8803C13.8132 17.8615 13.778 17.7227 13.7405 17.5745C13.6796 17.3392 13.6679 17.2498 13.6585 16.904C13.6491 16.6029 13.6562 16.4524 13.6843 16.2924C13.703 16.1771 13.7476 15.9842 13.7804 15.869C13.8132 15.7537 13.8999 15.5349 13.9749 15.3867C14.0757 15.182 14.125 15.1091 14.1718 15.0879C14.2093 15.0715 14.2586 15.0621 14.2844 15.0691C14.3101 15.0762 14.3476 15.0974 14.3664 15.1162C14.3852 15.135 14.4016 15.1773 14.4016 15.2103C14.4016 15.2432 14.3547 15.3655 14.2961 15.4808C14.2375 15.5961 14.1601 15.7843 14.1203 15.8995C14.0828 16.0125 14.0359 16.2007 14.0148 16.3159C13.996 16.4312 13.9796 16.65 13.9796 16.7982C13.9796 16.9464 13.996 17.1652 14.0148 17.2804C14.0359 17.3957 14.0851 17.5886 14.1226 17.7039C14.1625 17.8191 14.2422 18.005 14.3008 18.1156C14.3594 18.2261 14.4508 18.3743 14.5024 18.4449C14.5539 18.5155 14.6805 18.6637 14.786 18.7719C14.8891 18.8801 15.0555 19.026 15.1516 19.0989C15.2478 19.1718 15.4282 19.2824 15.5501 19.3459C15.672 19.407 15.8549 19.4847 15.9533 19.5153C16.0541 19.5482 16.2276 19.5905 16.3401 19.6094C16.4549 19.6282 16.6682 19.6446 16.8159 19.6446C16.9636 19.6446 17.1792 19.6282 17.2964 19.607C17.4113 19.5882 17.6012 19.5388 17.7184 19.4988C17.8332 19.4588 17.9926 19.3953 18.07 19.3553C18.1473 19.3177 18.2786 19.24 18.363 19.1836C18.4474 19.1295 18.5857 19.0212 18.6724 18.946C18.7591 18.8707 18.888 18.7413 18.9607 18.6566C19.0334 18.5719 19.1389 18.4355 19.1928 18.3508C19.249 18.2661 19.3264 18.132 19.3686 18.0497C19.4084 17.9697 19.4717 17.8121 19.5116 17.6992C19.5491 17.5839 19.5959 17.3957 19.617 17.2804C19.6358 17.1652 19.6522 16.9464 19.6522 16.7982C19.6522 16.65 19.6381 16.4383 19.6194 16.3277C19.603 16.2171 19.5537 16.0266 19.5139 15.9042C19.4717 15.7819 19.392 15.5914 19.3334 15.4808C19.2748 15.3702 19.174 15.2079 19.106 15.1162C19.0404 15.0244 18.9021 14.8692 18.8037 14.7704C18.7029 14.6692 18.5435 14.5328 18.4497 14.4669C18.3583 14.401 18.2012 14.3069 18.1051 14.2575C18.009 14.2081 17.8403 14.1376 17.7301 14.0976C17.6199 14.0599 17.4301 14.0105 17.3082 13.9893C17.1863 13.9682 16.9636 13.9517 16.8159 13.9517C16.6682 13.9517 16.4549 13.9682 16.3401 13.987C16.2276 14.0058 16.0494 14.0505 15.9416 14.0834C15.8361 14.1164 15.6603 14.1917 15.5501 14.2481C15.44 14.3046 15.2806 14.401 15.1938 14.4622C15.1095 14.5234 14.9758 14.6316 14.8962 14.6998C14.7836 14.7962 14.7368 14.8221 14.6711 14.8221C14.6125 14.8221 14.5797 14.808 14.5539 14.7704C14.5352 14.7398 14.5188 14.6904 14.5188 14.6574C14.5164 14.6151 14.561 14.5563 14.6641 14.4551C14.7461 14.3775 14.8797 14.2646 14.9641 14.2058C15.0485 14.147 15.1681 14.0693 15.229 14.0317C15.2899 13.9941 15.3368 13.9611 15.3345 13.9564C15.3298 13.9517 15.0579 13.9494 14.7297 13.9517C14.3336 13.9541 14.1086 13.9447 14.0617 13.9282C14.0218 13.9141 13.9843 13.8882 13.9749 13.8741C13.9656 13.8576 13.9562 13.5518 13.9492 12.5426L14.0054 12.5049C14.0523 12.4744 14.1601 12.4697 14.6875 12.4697H14.6899ZM14.3101 13.5988H15.0602V12.8225H14.3101V13.5988ZM16.3963 13.5988H17.1464V12.8225H16.3963V13.5988Z" fill="white"/>
<path d="M9.03381 9.3574C9.18148 9.35505 9.05021 9.35034 8.7408 9.35034C8.43139 9.35034 8.3095 9.35505 8.47124 9.3574C8.63298 9.3621 8.88613 9.3621 9.03381 9.3574Z" fill="white" fill-opacity="0.8"/>
<path d="M15.1283 9.3574C15.9346 9.35505 15.2643 9.35269 13.6398 9.35269C12.0154 9.35269 11.3567 9.35505 12.1748 9.3574C12.9929 9.3621 14.3219 9.3621 15.1283 9.3574Z" fill="white" fill-opacity="0.8"/>
<path d="M18.8319 9.3574C18.9795 9.35505 18.8483 9.35034 18.5389 9.35034C18.2295 9.35034 18.1076 9.35505 18.2693 9.3574C18.431 9.3621 18.6842 9.3621 18.8319 9.3574Z" fill="white" fill-opacity="0.8"/>
<path d="M16.2769 11.6158C17.7278 11.6134 16.5347 11.611 13.6281 11.611C10.7215 11.611 9.53309 11.6134 10.9911 11.6158C12.4491 11.6205 14.8259 11.6205 16.2769 11.6158Z" fill="white" fill-opacity="0.8"/>
<path d="M19.27 12.3639C19.2747 12.2086 19.2747 11.9451 19.27 11.7758C19.2677 11.6064 19.263 11.7334 19.263 12.0581C19.263 12.3827 19.2677 12.5191 19.27 12.3639Z" fill="white" fill-opacity="0.4"/>
<path d="M19.27 14.3987C19.2747 14.1988 19.2747 13.8765 19.27 13.6812C19.2677 13.486 19.263 13.6507 19.263 14.0459C19.263 14.4411 19.2677 14.5987 19.27 14.3987Z" fill="white" fill-opacity="0.4"/>
<path d="M12.538 18.2732C13.3373 18.2709 12.6786 18.2685 11.073 18.2685C9.4673 18.2685 8.81331 18.2709 9.61966 18.2732C10.426 18.2779 11.7387 18.2779 12.538 18.2732Z" fill="white" fill-opacity="0.4"/>
<path d="M8.37044 13.6694C8.37517 13.3001 8.37517 12.6861 8.37044 12.305C8.36808 11.9239 8.36572 12.225 8.36572 12.9754C8.36572 13.7259 8.36808 14.0387 8.37044 13.6694Z" fill="white" fill-opacity="0.1"/>
<path d="M8.37044 17.1863C8.37517 16.784 8.37517 16.1348 8.37044 15.7396C8.36808 15.3443 8.36572 15.6737 8.36572 16.4688C8.36572 17.2639 8.36808 17.5886 8.37044 17.1863Z" fill="white" fill-opacity="0.1"/>
<path d="M18.9186 12.3755C18.9233 12.2273 18.9233 11.9944 18.9186 11.858C18.9162 11.7216 18.9116 11.8439 18.9116 12.1285C18.9116 12.4132 18.9162 12.5237 18.9186 12.3755Z" fill="white" fill-opacity="0.7"/>
<path d="M15.426 13.4812C15.4307 13.3189 15.4307 13.0601 15.426 12.9048C15.4236 12.7496 15.4189 12.8813 15.4189 13.1989C15.4189 13.5165 15.4236 13.6435 15.426 13.4812Z" fill="white" fill-opacity="0.7"/>
<path d="M18.9186 14.1163C18.9233 13.9681 18.9233 13.7305 18.9186 13.587C18.9162 13.4435 18.9116 13.5659 18.9116 13.8576C18.9116 14.1493 18.9162 14.2646 18.9186 14.1163Z" fill="white" fill-opacity="0.7"/>
<path d="M16.5979 9.17629C16.6026 9.07984 16.6026 8.93163 16.5979 8.84695C16.5932 8.76226 16.5908 8.84224 16.5908 9.02338C16.5908 9.20452 16.5955 9.27274 16.5979 9.17629Z" fill="white" fill-opacity="0.8"/>
<path d="M12.456 17.9203C13.2108 17.9179 12.599 17.9156 11.0965 17.9156C9.59397 17.9156 8.97749 17.9179 9.72524 17.9203C10.473 17.925 11.7013 17.925 12.456 17.9203Z" fill="white" fill-opacity="0.7"/>
<path d="M14.9642 12.4626C15.1259 12.4603 14.9993 12.4556 14.6829 12.4556C14.3664 12.4556 14.2352 12.4603 14.3899 12.4626C14.5446 12.4674 14.8024 12.4674 14.9642 12.4626Z" fill="white" fill-opacity="0.6"/>
<path d="M17.0504 12.4626C17.2121 12.4603 17.0855 12.4556 16.7691 12.4556C16.4526 12.4556 16.3214 12.4603 16.4761 12.4626C16.6308 12.4674 16.8886 12.4674 17.0504 12.4626Z" fill="white" fill-opacity="0.6"/>
<path d="M9.28443 9.17629C9.28915 9.07984 9.28915 8.93163 9.28443 8.84695C9.2797 8.76226 9.27734 8.84224 9.27734 9.02338C9.27734 9.20452 9.28207 9.27274 9.28443 9.17629Z" fill="white" fill-opacity="0.1"/>
<path d="M16.0354 13.4224C16.0401 13.2671 16.0401 13.0248 16.0354 12.8813C16.033 12.7378 16.0283 12.8649 16.0283 13.1636C16.0283 13.4624 16.033 13.5777 16.0354 13.4224Z" fill="white" fill-opacity="0.9"/>
<path d="M13.9492 13.5165C13.9539 13.3612 13.9539 13.0977 13.9492 12.9283C13.9469 12.759 13.9421 12.886 13.9421 13.2106C13.9421 13.5353 13.9469 13.6717 13.9492 13.5165Z" fill="white" fill-opacity="0.9"/>
<path d="M10.6909 9.17629C10.6956 9.07984 10.6956 8.93163 10.6909 8.84695C10.6862 8.76226 10.6838 8.84224 10.6838 9.02338C10.6838 9.20452 10.6885 9.27274 10.6909 9.17629Z" fill="white" fill-opacity="0.6"/>
<path d="M19.27 10.9759C19.2747 10.7171 19.2747 10.2843 19.27 10.0114C19.2677 9.73853 19.2653 9.95025 19.2653 10.4819C19.2653 11.0136 19.2677 11.2347 19.27 10.9759Z" fill="white" fill-opacity="0.6"/>
<path d="M17.512 13.4107C17.5167 13.2625 17.5167 13.0249 17.512 12.8814C17.5097 12.7379 17.505 12.8602 17.505 13.1519C17.505 13.4436 17.5097 13.5589 17.512 13.4107Z" fill="white" fill-opacity="0.6"/>
<path fill-rule="evenodd" clip-rule="evenodd" d="M10.5104 12.4697C11.1129 12.4697 11.1457 12.4721 11.1902 12.5168C11.2348 12.5615 11.2371 12.5968 11.2371 13.206C11.2394 13.8294 11.2371 13.8483 11.1879 13.893C11.141 13.9377 11.1058 13.94 10.5104 13.94C9.91507 13.94 9.8799 13.9377 9.83302 13.893C9.7838 13.8483 9.78146 13.8294 9.7838 13.2037C9.7838 12.5968 9.78614 12.5615 9.83068 12.5168C9.87522 12.4721 9.90803 12.4697 10.5104 12.4697ZM10.1354 13.5989H10.8855V12.8226H10.1354V13.5989ZM12.5966 12.4697C13.1991 12.4697 13.2319 12.4721 13.2764 12.5168C13.3209 12.5615 13.3233 12.5968 13.3233 13.206C13.3256 13.8294 13.3233 13.8483 13.2741 13.893C13.2272 13.9377 13.192 13.94 12.5966 13.94C12.0013 13.94 11.9661 13.9377 11.9192 13.893C11.87 13.8483 11.8676 13.8294 11.87 13.2037C11.87 12.5968 11.8723 12.5615 11.9169 12.5168C11.9614 12.4721 11.9942 12.4697 12.5966 12.4697ZM12.2216 13.5989H12.9717V12.8226H12.2216V13.5989ZM10.5409 14.9233C11.141 14.928 11.1715 14.9304 11.2043 14.9751C11.2324 15.0127 11.2371 15.1421 11.2371 15.6573C11.2371 16.0078 11.2277 16.3042 11.2183 16.3183C11.209 16.3325 11.1785 16.356 11.148 16.3724C11.1129 16.3889 10.9066 16.3983 10.5104 16.3983C10.1143 16.3983 9.90803 16.3889 9.87053 16.3724C9.8424 16.356 9.81193 16.3325 9.80255 16.3183C9.79318 16.3042 9.7838 16.0078 9.7838 15.6573C9.7838 15.1798 9.79083 15.0127 9.81193 14.9845C9.82834 14.9633 9.85881 14.9398 9.87756 14.9327C9.89631 14.9257 10.1963 14.921 10.5409 14.9233ZM10.1354 16.0455H10.8855V15.2691H10.1354V16.0455ZM12.592 14.9186C12.9951 14.9163 13.1991 14.9257 13.2342 14.9422C13.2647 14.9586 13.2952 14.9821 13.3045 14.9963C13.3139 15.0104 13.3233 15.3068 13.3233 15.6573C13.3233 16.0078 13.3139 16.3042 13.3045 16.3207C13.2952 16.3348 13.26 16.3583 13.2248 16.3724C13.185 16.3889 12.9389 16.3983 12.5849 16.3983C12.1982 16.3983 11.9942 16.3889 11.9591 16.3724C11.9286 16.356 11.8981 16.3325 11.8887 16.3183C11.8794 16.3042 11.87 16.0078 11.87 15.6573C11.87 15.1798 11.877 15.0127 11.8981 14.9845C11.9145 14.9633 11.945 14.9398 11.9638 14.9327C11.9825 14.9257 12.2661 14.9186 12.592 14.9186ZM12.2216 16.0455H12.9717V15.2691H12.2216V16.0455ZM18.0582 15.4103C18.1309 15.4103 18.2294 15.4291 18.2809 15.4526C18.3325 15.4762 18.4075 15.5373 18.4497 15.5891C18.4919 15.6385 18.5388 15.7279 18.5528 15.7867C18.5692 15.8479 18.5739 15.9396 18.5669 16.0055C18.5575 16.0666 18.5364 16.1419 18.5224 16.1748C18.506 16.2054 18.0957 16.6312 17.6129 17.1182C17.1066 17.6263 16.694 18.0239 16.6401 18.0521C16.5745 18.0874 16.5041 18.1015 16.4057 18.1015C16.3049 18.1015 16.2346 18.0874 16.1596 18.0474C16.0939 18.0145 15.8806 17.8192 15.6064 17.5416C15.3579 17.2946 15.1376 17.0547 15.1165 17.01C15.093 16.9653 15.0696 16.8641 15.0649 16.7865C15.0555 16.6665 15.0626 16.6265 15.1212 16.5159C15.161 16.436 15.222 16.3607 15.2806 16.3207C15.3462 16.2736 15.4142 16.2501 15.515 16.2407C15.6228 16.2289 15.6837 16.236 15.7728 16.2689C15.8619 16.3019 15.951 16.3724 16.4057 16.8194L17.0503 16.1725C17.5215 15.702 17.7277 15.5114 17.8121 15.4691C17.8942 15.4268 17.9668 15.4103 18.0582 15.4103ZM16.4057 17.2452C16.3471 17.2452 16.2791 17.1887 16.0002 16.9159C15.7001 16.6195 15.6603 16.5865 15.5853 16.5865C15.5337 16.5865 15.4845 16.6053 15.4564 16.6336C15.4282 16.6618 15.4095 16.7112 15.4095 16.7583C15.4095 16.8241 15.4634 16.8853 15.8666 17.2923C16.2908 17.7181 16.3283 17.751 16.4057 17.7486C16.483 17.7486 16.5463 17.6898 17.355 16.8782C18.1379 16.0925 18.2223 16.0031 18.2223 15.9349C18.2223 15.8878 18.2036 15.8384 18.1754 15.8102C18.145 15.7796 18.0981 15.7632 18.0418 15.7632C17.9598 15.7632 17.9176 15.8008 17.2167 16.5042C16.5721 17.1488 16.4666 17.2452 16.4057 17.2452Z" fill="white"/>
<path d="M11.2536 13.4812C11.2583 13.3189 11.2583 13.0601 11.2536 12.9049C11.2513 12.7496 11.2466 12.8814 11.2466 13.1989C11.2466 13.5165 11.2513 13.6435 11.2536 13.4812Z" fill="white" fill-opacity="0.8"/>
<path d="M11.8631 13.5165C11.8678 13.3613 11.8678 13.0978 11.8631 12.9284C11.8607 12.759 11.856 12.8861 11.856 13.2107C11.856 13.5353 11.8607 13.6718 11.8631 13.5165Z" fill="white" fill-opacity="0.8"/>
<path d="M11.2536 15.9631C11.2583 15.8078 11.2583 15.542 11.2536 15.375C11.2513 15.2079 11.2466 15.3326 11.2466 15.6572C11.2466 15.9819 11.2513 16.1183 11.2536 15.9631Z" fill="white" fill-opacity="0.8"/>
<path d="M11.8631 15.9631C11.8678 15.8078 11.8678 15.542 11.8631 15.375C11.8607 15.2079 11.856 15.3326 11.856 15.6572C11.856 15.9819 11.8607 16.1183 11.8631 15.9631Z" fill="white" fill-opacity="0.8"/>
<path d="M16.9494 9.76437C16.9541 9.57617 16.9541 9.25859 16.9494 9.05863C16.9471 8.85867 16.9424 9.01158 16.9424 9.39974C16.9424 9.78789 16.9471 9.95256 16.9494 9.76437Z" fill="white" fill-opacity="0.3"/>
<path d="M16.2884 11.2629C17.7324 11.2605 16.5416 11.2582 13.6397 11.2582C10.7378 11.2582 9.55637 11.2605 11.0144 11.2629C12.4723 11.2676 14.8445 11.2676 16.2884 11.2629Z" fill="white" fill-opacity="0.3"/>
<path d="M15.0743 13.4225C15.079 13.319 15.079 13.1378 15.0743 13.0225C15.072 12.9073 15.0673 12.992 15.0673 13.2107C15.0673 13.4295 15.072 13.526 15.0743 13.4225Z" fill="white" fill-opacity="0.4"/>
<path d="M10.7918 14.9092C10.9535 14.9069 10.827 14.9022 10.5105 14.9022C10.1941 14.9022 10.0628 14.9069 10.2175 14.9092C10.3722 14.9139 10.6301 14.9139 10.7918 14.9092Z" fill="white" fill-opacity="0.4"/>
<path d="M12.878 14.9092C13.0397 14.9069 12.9132 14.9022 12.5967 14.9022C12.2803 14.9022 12.149 14.9069 12.3037 14.9092C12.4584 14.9139 12.7163 14.9139 12.878 14.9092Z" fill="white" fill-opacity="0.4"/>
<path d="M9.0454 9.71024C9.17432 9.70789 9.07353 9.70319 8.82272 9.70319C8.5719 9.70319 8.46642 9.70789 8.58831 9.71024C8.7102 9.71495 8.91648 9.71495 9.0454 9.71024Z" fill="white" fill-opacity="0.3"/>
<path d="M15.1282 9.71024C15.9345 9.70789 15.2641 9.70554 13.6397 9.70554C12.0153 9.70554 11.3566 9.70789 12.1747 9.71024C12.9928 9.71495 14.3218 9.71495 15.1282 9.71024Z" fill="white" fill-opacity="0.3"/>
<path d="M18.6911 9.71024C18.813 9.70789 18.7028 9.70319 18.445 9.70319C18.1871 9.70319 18.0863 9.70789 18.2223 9.71024C18.3582 9.71495 18.5692 9.71495 18.6911 9.71024Z" fill="white" fill-opacity="0.3"/>
<path d="M10.7917 16.4147C10.9534 16.4124 10.8269 16.4077 10.5104 16.4077C10.194 16.4077 10.0627 16.4124 10.2174 16.4147C10.3721 16.4194 10.63 16.4194 10.7917 16.4147Z" fill="white" fill-opacity="0.3"/>
<path d="M12.8779 16.4147C13.0396 16.4124 12.9131 16.4077 12.5966 16.4077C12.2802 16.4077 12.1489 16.4124 12.3036 16.4147C12.4583 16.4194 12.7162 16.4194 12.8779 16.4147Z" fill="white" fill-opacity="0.3"/>
<path d="M17.6294 9.76437C17.6341 9.57617 17.6341 9.25859 17.6294 9.05863C17.627 8.85867 17.6223 9.01158 17.6223 9.39974C17.6223 9.78789 17.627 9.95256 17.6294 9.76437Z" fill="white" fill-opacity="0.1"/>
<path d="M18.9185 10.8818C18.9232 10.6747 18.9232 10.3242 18.9185 10.1054C18.9161 9.88666 18.9114 10.0537 18.9114 10.4818C18.9114 10.91 18.9161 11.0888 18.9185 10.8818Z" fill="white" fill-opacity="0.7"/>
<path d="M16.5979 9.9996C16.6026 9.94079 16.6026 9.85139 16.5979 9.79964C16.5933 9.74789 16.5886 9.79494 16.5886 9.9055C16.5886 10.0161 16.5933 10.0584 16.5979 9.9996Z" fill="white" fill-opacity="0.8"/>
<path d="M9.77681 13.5165C9.7815 13.3613 9.7815 13.0978 9.77681 12.9284C9.77446 12.759 9.76978 12.8861 9.76978 13.2107C9.76978 13.5353 9.77446 13.6718 9.77681 13.5165Z" fill="white" fill-opacity="0.8"/>
<path d="M13.3397 13.5165C13.3444 13.3613 13.3444 13.0978 13.3397 12.9284C13.3374 12.759 13.3327 12.8861 13.3327 13.2107C13.3327 13.5353 13.3374 13.6718 13.3397 13.5165Z" fill="white" fill-opacity="0.8"/>
<path d="M9.77681 15.9631C9.7815 15.8078 9.7815 15.542 9.77681 15.375C9.77446 15.2079 9.76978 15.3326 9.76978 15.6573C9.76978 15.9819 9.77446 16.1183 9.77681 15.9631Z" fill="white" fill-opacity="0.8"/>
<path d="M13.3397 15.9631C13.3444 15.8078 13.3444 15.542 13.3397 15.375C13.3374 15.2079 13.3327 15.3326 13.3327 15.6573C13.3327 15.9819 13.3374 16.1183 13.3397 15.9631Z" fill="white" fill-opacity="0.8"/>
<path d="M10.7918 12.4626C10.9535 12.4603 10.827 12.4556 10.5105 12.4556C10.1941 12.4556 10.0628 12.4603 10.2175 12.4626C10.3722 12.4674 10.6301 12.4674 10.7918 12.4626Z" fill="white" fill-opacity="0.6"/>
<path d="M12.878 12.4626C13.0397 12.4603 12.9132 12.4556 12.5967 12.4556C12.2803 12.4556 12.149 12.4603 12.3037 12.4626C12.4584 12.4674 12.7163 12.4674 12.878 12.4626Z" fill="white" fill-opacity="0.6"/>
<path d="M9.28452 9.9996C9.28921 9.94079 9.28921 9.85139 9.28452 9.79964C9.27983 9.74789 9.27515 9.79494 9.27515 9.9055C9.27515 10.0161 9.27983 10.0584 9.28452 9.9996Z" fill="white" fill-opacity="0.1"/>
<path d="M14.3008 13.3871C14.3054 13.2766 14.3054 13.1025 14.3008 12.999C14.2984 12.8955 14.2937 12.9849 14.2937 13.1989C14.2937 13.413 14.2984 13.4977 14.3008 13.3871Z" fill="white" fill-opacity="0.1"/>
<path d="M16.3869 13.4224C16.3916 13.3189 16.3916 13.1378 16.3869 13.0225C16.3846 12.9072 16.3799 12.9919 16.3799 13.2107C16.3799 13.4295 16.3846 13.5259 16.3869 13.4224Z" fill="white" fill-opacity="0.1"/>
<path d="M9.63623 9.76437C9.64095 9.57617 9.64095 9.25859 9.63623 9.05863C9.63387 8.85867 9.62915 9.01158 9.62915 9.39974C9.62915 9.78789 9.63387 9.95256 9.63623 9.76437Z" fill="white" fill-opacity="0.9"/>
<path d="M10.6911 10.0003C10.6958 9.94132 10.6958 9.85163 10.6911 9.79971C10.6864 9.74779 10.6816 9.79499 10.6816 9.90591C10.6816 10.0168 10.6864 10.0593 10.6911 10.0003Z" fill="white" fill-opacity="0.6"/>
<path d="M14.8819 12.8155C14.9851 12.8131 14.896 12.8084 14.6827 12.8084C14.4694 12.8084 14.385 12.8131 14.4952 12.8155C14.6053 12.8202 14.7788 12.8202 14.8819 12.8155Z" fill="white" fill-opacity="0.5"/>
<path d="M16.9681 12.8155C17.0713 12.8131 16.9822 12.8084 16.7689 12.8084C16.5556 12.8084 16.4712 12.8131 16.5814 12.8155C16.6915 12.8202 16.865 12.8202 16.9681 12.8155Z" fill="white" fill-opacity="0.5"/>
<path d="M10.3393 9.74077C10.344 9.54081 10.344 9.21853 10.3393 9.02327C10.337 8.82802 10.3323 8.99269 10.3323 9.3879C10.3323 9.78312 10.337 9.94073 10.3393 9.74077Z" fill="white" fill-opacity="0.4"/>
<path d="M17.1604 13.4224C17.1651 13.3189 17.1651 13.1377 17.1604 13.0224C17.1581 12.9072 17.1534 12.9919 17.1534 13.2106C17.1534 13.4294 17.1581 13.5259 17.1604 13.4224Z" fill="white" fill-opacity="0.4"/>
<path d="M8.37036 10.8818C8.37509 10.6747 8.37509 10.3242 8.37036 10.1054C8.368 9.88666 8.36328 10.0537 8.36328 10.4818C8.36328 10.91 8.368 11.0888 8.37036 10.8818Z" fill="white" fill-opacity="0.3"/>
<path d="M10.7096 16.0618C10.8127 16.0595 10.7236 16.0547 10.5103 16.0547C10.297 16.0547 10.2126 16.0595 10.3228 16.0618C10.433 16.0666 10.6064 16.0666 10.7096 16.0618Z" fill="white" fill-opacity="0.8"/>
<path d="M12.7958 16.0618C12.8989 16.0595 12.8028 16.0547 12.5848 16.0547C12.3668 16.0547 12.2824 16.0595 12.3973 16.0618C12.5121 16.0666 12.6926 16.0666 12.7958 16.0618Z" fill="white" fill-opacity="0.8"/>
<path d="M10.1284 13.3872C10.1331 13.2766 10.1331 13.1025 10.1284 12.999C10.1261 12.8955 10.1213 12.9849 10.1213 13.199C10.1213 13.413 10.1261 13.4977 10.1284 13.3872Z" fill="white" fill-opacity="0.3"/>
<path d="M10.1284 15.869C10.1331 15.7655 10.1331 15.5844 10.1284 15.4691C10.1261 15.3538 10.1213 15.4362 10.1213 15.6573C10.1213 15.8784 10.1261 15.9725 10.1284 15.869Z" fill="white" fill-opacity="0.3"/>
<path d="M10.9021 13.3872C10.9068 13.2766 10.9068 13.1025 10.9021 12.999C10.8997 12.8955 10.895 12.9849 10.895 13.199C10.895 13.413 10.8997 13.4977 10.9021 13.3872Z" fill="white" fill-opacity="0.3"/>
<path d="M10.9021 15.869C10.9068 15.7655 10.9068 15.5844 10.9021 15.4691C10.8997 15.3538 10.895 15.4362 10.895 15.6573C10.895 15.8784 10.8997 15.9725 10.9021 15.869Z" fill="white" fill-opacity="0.3"/>
<path d="M10.7096 15.2621C10.8127 15.2597 10.7236 15.255 10.5103 15.255C10.297 15.255 10.2126 15.2597 10.3228 15.2621C10.433 15.2668 10.6064 15.2668 10.7096 15.2621Z" fill="white" fill-opacity="0.7"/>
<path d="M12.7958 15.2621C12.8989 15.2597 12.8098 15.255 12.5965 15.255C12.3832 15.255 12.2988 15.2597 12.409 15.2621C12.5192 15.2668 12.6926 15.2668 12.7958 15.2621Z" fill="white" fill-opacity="0.7"/>
<path d="M12.2146 13.3872C12.2193 13.2766 12.2193 13.1025 12.2146 12.999C12.2122 12.8955 12.2075 12.9849 12.2075 13.199C12.2075 13.413 12.2122 13.4977 12.2146 13.3872Z" fill="white" fill-opacity="0.2"/>
<path d="M12.2146 15.869C12.2193 15.7655 12.2193 15.5844 12.2146 15.4691C12.2122 15.3538 12.2075 15.4362 12.2075 15.6573C12.2075 15.8784 12.2122 15.9725 12.2146 15.869Z" fill="white" fill-opacity="0.2"/>
<path d="M10.7096 12.8155C10.8127 12.8131 10.7236 12.8084 10.5103 12.8084C10.297 12.8084 10.2126 12.8131 10.3228 12.8155C10.433 12.8202 10.6064 12.8202 10.7096 12.8155Z" fill="white" fill-opacity="0.5"/>
<path d="M12.7958 12.8155C12.8989 12.8131 12.8098 12.8084 12.5965 12.8084C12.3832 12.8084 12.2988 12.8131 12.409 12.8155C12.5192 12.8202 12.6926 12.8202 12.7958 12.8155Z" fill="white" fill-opacity="0.5"/>
<path d="M12.9883 13.4225C12.993 13.319 12.993 13.1378 12.9883 13.0225C12.9859 12.9073 12.9812 12.992 12.9812 13.2107C12.9812 13.4295 12.9859 13.526 12.9883 13.4225Z" fill="white" fill-opacity="0.3"/>
<path d="M12.9883 15.869C12.993 15.7655 12.993 15.5844 12.9883 15.4691C12.9859 15.3538 12.9812 15.4362 12.9812 15.6573C12.9812 15.8784 12.9859 15.9725 12.9883 15.869Z" fill="white" fill-opacity="0.3"/>
</svg>
